<svg xmlns="http://www.w3.org/2000/svg" width="23.699" height="19" viewBox="0 0 23.699 19"><g transform="translate(0 -50.758)"><g transform="translate(0 50.758)"><g transform="translate(0 0)"><path d="M17.232,50.758H1.334A1.336,1.336,0,0,0,0,52.092V61.63a1.336,1.336,0,0,0,1.334,1.334H2.365v3.551a.559.559,0,0,0,.954.4l3.946-3.946h.792a.559.559,0,0,0,0-1.118s-1.05,0-1.061,0a.557.557,0,0,0-.357.162L3.483,65.166s0-2.8,0-2.81a.559.559,0,0,0-.557-.509H1.334a.217.217,0,0,1-.216-.216V52.092a.217.217,0,0,1,.216-.216h15.9a.217.217,0,0,1,.216.216v3.659a.559.559,0,1,0,1.118,0V52.092A1.336,1.336,0,0,0,17.232,50.758Z" transform="translate(0 -50.758)" fill="#fff"/></g></g><g transform="translate(9.902 57.596)"><g transform="translate(0 0)"><path d="M226.386,198.492H215.258a1.336,1.336,0,0,0-1.335,1.334v6.507a1.336,1.336,0,0,0,1.335,1.335h6.967l2.823,2.823a.559.559,0,0,0,.954-.4v-2.427h.384a1.336,1.336,0,0,0,1.334-1.335v-6.507A1.336,1.336,0,0,0,226.386,198.492Zm.216,7.841a.217.217,0,0,1-.216.216h-.943a.559.559,0,0,0-.557.516c0,.012,0,1.68,0,1.68l-2.03-2.03-.006-.006-.023-.021a.556.556,0,0,0-.368-.139h-7.2a.217.217,0,0,1-.216-.216v-6.507a.217.217,0,0,1,.216-.216h11.128a.217.217,0,0,1,.216.216Z" transform="translate(-213.923 -198.492)" fill="#fff"/></g></g><g transform="translate(16.241 61.625)"><path d="M351.445,285.53a.559.559,0,1,0,.559.559A.559.559,0,0,0,351.445,285.53Z" transform="translate(-350.886 -285.53)" fill="#fff"/></g><g transform="translate(3.637 54.454)"><g transform="translate(0 0)"><path d="M89.306,130.611H79.131a.559.559,0,1,0,0,1.118H89.306a.559.559,0,1,0,0-1.118Z" transform="translate(-78.572 -130.611)" fill="#fff"/></g></g><g transform="translate(3.637 58.15)"><g transform="translate(0 0)"><path d="M82.993,210.465H79.131a.559.559,0,0,0,0,1.118h3.861a.559.559,0,0,0,0-1.118Z" transform="translate(-78.572 -210.465)" fill="#fff"/></g></g><g transform="translate(13.643 61.625)"><path d="M295.318,285.53a.559.559,0,1,0,.559.559A.559.559,0,0,0,295.318,285.53Z" transform="translate(-294.759 -285.53)" fill="#fff"/></g><g transform="translate(18.839 61.625)"><path d="M407.56,285.53a.559.559,0,1,0,.559.559A.559.559,0,0,0,407.56,285.53Z" transform="translate(-407.001 -285.53)" fill="#fff"/></g></g></svg>