<svg xmlns="http://www.w3.org/2000/svg" xmlns:xlink="http://www.w3.org/1999/xlink" width="185.866" height="49.283" viewBox="0 0 185.866 49.283">
  <defs>
    <radialGradient id="radial-gradient" cx="0.475" cy="0.591" r="0.509" gradientTransform="translate(0.018) scale(0.965 1)" gradientUnits="objectBoundingBox">
      <stop offset="0" stop-color="#00d6df"/>
      <stop offset="1" stop-color="#4b68f2"/>
    </radialGradient>
    <radialGradient id="radial-gradient-2" cx="0.392" cy="0.741" r="0.832" gradientTransform="matrix(-0.521, -0.831, 0.78, -0.556, 0.355, 0.729)" xlink:href="#radial-gradient"/>
    <radialGradient id="radial-gradient-3" cx="0.5" cy="0.5" r="0.493" gradientTransform="translate(-0.016) scale(1.031 1)" xlink:href="#radial-gradient"/>
    <linearGradient id="linear-gradient" x1="0.605" y1="-0.004" x2="0.516" y2="0.42" gradientUnits="objectBoundingBox">
      <stop offset="0" stop-color="#4b68f2"/>
      <stop offset="1" stop-color="#00d6df"/>
    </linearGradient>
    <linearGradient id="linear-gradient-2" x1="0.17" y1="0.049" x2="0.608" y2="0.648" xlink:href="#linear-gradient"/>
    <radialGradient id="radial-gradient-4" cx="0.705" cy="0.198" r="0.794" gradientTransform="translate(0)" gradientUnits="objectBoundingBox">
      <stop offset="0.572" stop-color="#00d6df"/>
      <stop offset="0.66" stop-color="#0bc4e1"/>
      <stop offset="0.834" stop-color="#2a98e9"/>
      <stop offset="1" stop-color="#4b68f2"/>
    </radialGradient>
  </defs>
  <g id="Group_550" data-name="Group 550" transform="translate(-142 -64.482)">
    <g id="Group_282" data-name="Group 282" transform="translate(204.292 75.962)">
      <g id="Group_272" data-name="Group 272" transform="translate(15.296 17.243)">
        <path id="Path_892" data-name="Path 892" d="M-3864.327,4315.7l2.683-7.732a2.523,2.523,0,0,1,.3-.592,2.054,2.054,0,0,1,.445-.468,2.246,2.246,0,0,1,.547-.3,1.69,1.69,0,0,1,.609-.112,1.9,1.9,0,0,1,1.178.389,2.214,2.214,0,0,1,.749,1.087l2.671,7.732h-1.77l-.665-1.938h-4.316l-.688,1.938Zm2.987-3.6h3.212q-.316-.907-.625-1.814t-.637-1.769q-.124-.374-.349-.374t-.338.352Z" transform="translate(3864.327 -4306.494)" fill="#fff"/>
        <path id="Path_893" data-name="Path 893" d="M-3753.208,4306.494v7.111a2.149,2.149,0,0,1-.253,1.077,2,2,0,0,1-.642.7,2.053,2.053,0,0,1-.866.315,2.218,2.218,0,0,1-.929-.073,2.192,2.192,0,0,1-.821-.462,1.862,1.862,0,0,1-.54-.868l-1.913-5.8a.467.467,0,0,0-.214-.248.505.505,0,0,0-.3-.062.438.438,0,0,0-.265.129.446.446,0,0,0-.112.327v7.067h-1.657v-7.067a2.145,2.145,0,0,1,.259-1.1,1.879,1.879,0,0,1,.665-.687,2.154,2.154,0,0,1,.9-.293,2.354,2.354,0,0,1,.947.091,2.211,2.211,0,0,1,.828.473,1.9,1.9,0,0,1,.541.851l1.894,5.771a.54.54,0,0,0,.2.27.447.447,0,0,0,.271.084.338.338,0,0,0,.243-.124.532.532,0,0,0,.107-.366v-7.111Z" transform="translate(3773.056 -4306.494)" fill="#fff"/>
        <path id="Path_894" data-name="Path 894" d="M-3653.373,4315.7h-1.656v-9.208h1.656Z" transform="translate(3678.157 -4306.494)" fill="#fff"/>
        <path id="Path_895" data-name="Path 895" d="M-3609.18,4306.494a3.566,3.566,0,0,1,1.452.3,3.757,3.757,0,0,1,1.176.812,3.9,3.9,0,0,1,.794,1.195,3.655,3.655,0,0,1,.292,1.459v5.444h-1.656v-5.452a2.2,2.2,0,0,0-.146-.8,2.149,2.149,0,0,0-.406-.666,1.949,1.949,0,0,0-.614-.457,1.883,1.883,0,0,0-.772-.181v7.552h-1.657v-7.552h-1.409a.669.669,0,0,0-.468.17.53.53,0,0,0-.186.406v6.976h-1.657v-6.965a2.117,2.117,0,0,1,.181-.862,2.272,2.272,0,0,1,.489-.716,2.339,2.339,0,0,1,.732-.484,2.275,2.275,0,0,1,.906-.18Z" transform="translate(3642.05 -4306.494)" fill="#fff"/>
        <path id="Path_896" data-name="Path 896" d="M-3512.848,4315.7l2.682-7.732a2.543,2.543,0,0,1,.3-.592,2.056,2.056,0,0,1,.446-.468,2.228,2.228,0,0,1,.547-.3,1.687,1.687,0,0,1,.608-.112,1.894,1.894,0,0,1,1.178.389,2.216,2.216,0,0,1,.75,1.087l2.671,7.732h-1.77l-.665-1.938h-4.316l-.688,1.938Zm2.987-3.6h3.212q-.315-.907-.625-1.814t-.637-1.769q-.124-.374-.35-.374t-.338.352Z" transform="translate(3551.686 -4306.494)" fill="#fff"/>
        <path id="Path_897" data-name="Path 897" d="M-3414.837,4308.15h-3.46v-1.656h8.555v1.656h-3.437v7.552h-1.657Z" transform="translate(3467.583 -4306.494)" fill="#fff"/>
        <path id="Path_898" data-name="Path 898" d="M-3319.335,4315.7h-1.657v-9.208h1.657Z" transform="translate(3381.03 -4306.494)" fill="#fff"/>
        <path id="Path_899" data-name="Path 899" d="M-3275.462,4306.494a2.107,2.107,0,0,1,.868.18,2.328,2.328,0,0,1,.71.484,2.252,2.252,0,0,1,.479.716,2.182,2.182,0,0,1,.175.862v3.933a2.97,2.97,0,0,1-.236,1.184,2.988,2.988,0,0,1-.654.963,3.078,3.078,0,0,1-.975.648,3.039,3.039,0,0,1-1.2.237h-1.871a2.157,2.157,0,0,1-.857-.175,2.3,2.3,0,0,1-.71-.474,2.254,2.254,0,0,1-.485-.7,2.11,2.11,0,0,1-.18-.868v-3.933a3,3,0,0,1,.237-1.195,3.116,3.116,0,0,1,.648-.969,2.981,2.981,0,0,1,.969-.653,3,3,0,0,1,1.189-.237Zm.575,2.232a.554.554,0,0,0-.169-.406.553.553,0,0,0-.406-.17h-1.894a1.291,1.291,0,0,0-.541.113,1.536,1.536,0,0,0-.44.3,1.337,1.337,0,0,0-.3.441,1.363,1.363,0,0,0-.107.536v3.941a.543.543,0,0,0,.169.4.553.553,0,0,0,.406.169h1.871a1.384,1.384,0,0,0,.547-.107,1.425,1.425,0,0,0,.445-.294,1.4,1.4,0,0,0,.3-.435,1.3,1.3,0,0,0,.113-.542Z" transform="translate(3344.923 -4306.494)" fill="#fff"/>
        <path id="Path_900" data-name="Path 900" d="M-3181.52,4306.494v7.111a2.147,2.147,0,0,1-.253,1.077,2,2,0,0,1-.641.7,2.052,2.052,0,0,1-.866.315,2.214,2.214,0,0,1-.928-.073,2.192,2.192,0,0,1-.822-.462,1.861,1.861,0,0,1-.54-.868l-1.913-5.8a.467.467,0,0,0-.214-.248.508.508,0,0,0-.3-.062.435.435,0,0,0-.264.129.444.444,0,0,0-.113.327v7.067h-1.657v-7.067a2.15,2.15,0,0,1,.259-1.1,1.879,1.879,0,0,1,.665-.687,2.157,2.157,0,0,1,.9-.293,2.354,2.354,0,0,1,.947.091,2.207,2.207,0,0,1,.828.473,1.909,1.909,0,0,1,.541.851l1.893,5.771a.54.54,0,0,0,.2.27.444.444,0,0,0,.27.084.336.336,0,0,0,.242-.124.529.529,0,0,0,.107-.366v-7.111Z" transform="translate(3264.539 -4306.494)" fill="#fff"/>
        <path id="Path_901" data-name="Path 901" d="M-3080.869,4311.153a2.5,2.5,0,0,1,.918.745,2.411,2.411,0,0,1,.435.954,2.27,2.27,0,0,1-.029,1.016,2.367,2.367,0,0,1-.457.92,2.429,2.429,0,0,1-.856.66,2.817,2.817,0,0,1-1.229.254h-4.418v-1.657h4.418a1.1,1.1,0,0,0,.581-.146.751.751,0,0,0,.327-.361.573.573,0,0,0-.022-.456.986.986,0,0,0-.479-.434l-3.415-1.781a2.527,2.527,0,0,1-.9-.732,2.338,2.338,0,0,1-.428-.924,2.112,2.112,0,0,1,.022-.969,2.218,2.218,0,0,1,.445-.874,2.372,2.372,0,0,1,.84-.631,2.816,2.816,0,0,1,1.206-.242h3.989v1.656h-3.989a1.149,1.149,0,0,0-.6.141.63.63,0,0,0-.292.333.5.5,0,0,0,.056.407.91.91,0,0,0,.446.361Z" transform="translate(3172.453 -4306.494)" fill="#fff"/>
      </g>
      <g id="Group_274" data-name="Group 274" transform="translate(0 0)">
        <g id="Group_273" data-name="Group 273">
          <path id="Path_902" data-name="Path 902" d="M-3985.012,4161.513a1.768,1.768,0,0,1-.5,1.053,1.478,1.478,0,0,1-1.082.4,1.539,1.539,0,0,1-.5-.094,2.164,2.164,0,0,1-.508-.253,1.533,1.533,0,0,1-.4-.386.857.857,0,0,1-.16-.508v-7.073l-4.684,4.853a.636.636,0,0,1-.32.292,1.3,1.3,0,0,1-.621.141,1.2,1.2,0,0,1-.508-.122,2.054,2.054,0,0,1-.564-.423l-4.759-4.722v7.073a.855.855,0,0,1-.16.508,1.543,1.543,0,0,1-.4.386,2.1,2.1,0,0,1-.508.254,1.535,1.535,0,0,1-.5.095,1.489,1.489,0,0,1-1.072-.4,1.745,1.745,0,0,1-.508-1.053v-9.48l.009-.02a.182.182,0,0,0,.01-.075,1.555,1.555,0,0,1,.282-.63,1.934,1.934,0,0,1,.5-.461,2.283,2.283,0,0,1,.63-.282,2.527,2.527,0,0,1,.677-.094,5.79,5.79,0,0,1,.884.076,1.407,1.407,0,0,1,.809.394l5.061,4.929,5.1-4.966a1.429,1.429,0,0,1,.79-.385,5.258,5.258,0,0,1,.884-.084,2.4,2.4,0,0,1,1.3.376,1.845,1.845,0,0,1,.809,1.11Z" transform="translate(4002.751 -4150.452)" fill="#fff"/>
          <path id="Path_903" data-name="Path 903" d="M-3818.459,4162.961h-8.729a2.148,2.148,0,0,1-1.448-.659,3.935,3.935,0,0,1-.706-.837,1.656,1.656,0,0,1-.273-.875v-7.807a.976.976,0,0,1,.028-.253,1.771,1.771,0,0,1,.066-.2,2.593,2.593,0,0,1,.4-.7,3.585,3.585,0,0,1,.593-.6,3.277,3.277,0,0,1,.677-.424,1.607,1.607,0,0,1,.668-.159h8.578a1.7,1.7,0,0,1,.668.159,3.528,3.528,0,0,1,.715.424,4.434,4.434,0,0,1,.64.592,2.251,2.251,0,0,1,.423.667,1.7,1.7,0,0,1,.094.226.824.824,0,0,1,.038.263v7.807a1.58,1.58,0,0,1-.292.875,4.291,4.291,0,0,1-.705.818A2.153,2.153,0,0,1-3818.459,4162.961Zm-.7-9.406h-7.336v6.32h7.336Z" transform="translate(3848.746 -4150.452)" fill="#fff"/>
          <path id="Path_904" data-name="Path 904" d="M-3683.118,4162.961h-8.729a2.148,2.148,0,0,1-1.448-.659,3.928,3.928,0,0,1-.706-.837,1.654,1.654,0,0,1-.273-.875v-7.807a.975.975,0,0,1,.029-.253,1.877,1.877,0,0,1,.066-.2,2.607,2.607,0,0,1,.4-.7,3.612,3.612,0,0,1,.593-.6,3.293,3.293,0,0,1,.677-.424,1.605,1.605,0,0,1,.667-.159h8.578a1.7,1.7,0,0,1,.668.159,3.521,3.521,0,0,1,.715.424,4.436,4.436,0,0,1,.64.592,2.255,2.255,0,0,1,.423.667,1.736,1.736,0,0,1,.094.226.839.839,0,0,1,.038.263v7.807a1.58,1.58,0,0,1-.292.875,4.291,4.291,0,0,1-.705.818A2.153,2.153,0,0,1-3683.118,4162.961Zm-.7-9.406h-7.336v6.32h7.336Z" transform="translate(3728.36 -4150.452)" fill="#fff"/>
          <path id="Path_905" data-name="Path 905" d="M-3558.931,4161.532v-9.518l.01-.02a.13.13,0,0,0,.009-.056,1.636,1.636,0,0,1,.282-.64,1.872,1.872,0,0,1,.5-.47,2.268,2.268,0,0,1,.63-.282,2.527,2.527,0,0,1,.677-.094,5.906,5.906,0,0,1,.884.075,1.414,1.414,0,0,1,.809.4l7.563,7.431v-6.678a1.231,1.231,0,0,1,.122-.273c.082-.157.141-.273.179-.348a1.176,1.176,0,0,1,.555-.461,1.918,1.918,0,0,1,.724-.141,1.619,1.619,0,0,1,.564.1,1.8,1.8,0,0,1,.508.282,1.4,1.4,0,0,1,.367.442,1.256,1.256,0,0,1,.141.6v9.312a1.48,1.48,0,0,1-.16.687,1.764,1.764,0,0,1-.423.536,2.11,2.11,0,0,1-.6.358,1.914,1.914,0,0,1-.7.131,2.93,2.93,0,0,1-.978-.179,2.4,2.4,0,0,1-.865-.517l-7.656-7.543v7.073a.856.856,0,0,1-.16.508,1.547,1.547,0,0,1-.4.386,2.1,2.1,0,0,1-.508.254,1.534,1.534,0,0,1-.5.095,1.49,1.49,0,0,1-1.072-.4A1.749,1.749,0,0,1-3558.931,4161.532Z" transform="translate(3607.973 -4150.452)" fill="#fff"/>
          <path id="Path_906" data-name="Path 906" d="M-3411.765,4155.27h8.107a1.741,1.741,0,0,1,.828.234,3.493,3.493,0,0,1,.8.6,3.809,3.809,0,0,1,.611.79,1.632,1.632,0,0,1,.245.818v2.972a1.553,1.553,0,0,1-.15.649,3.171,3.171,0,0,1-.4.64,3.418,3.418,0,0,1-.564.564,3.056,3.056,0,0,1-.659.4,1.43,1.43,0,0,1-.64.169h-10.177a.824.824,0,0,1-.5-.159,1.356,1.356,0,0,1-.357-.4,2.007,2.007,0,0,1-.216-.517,2.06,2.06,0,0,1-.075-.527,1.269,1.269,0,0,1,.094-.423,2.559,2.559,0,0,1,.245-.489,1.481,1.481,0,0,1,.367-.4.739.739,0,0,1,.442-.16h9.443l.038-.019v-1.6h-8.108a1.8,1.8,0,0,1-.837-.235,3.569,3.569,0,0,1-.818-.6,3.651,3.651,0,0,1-.621-.791,1.634,1.634,0,0,1-.245-.818v-2.915a1.938,1.938,0,0,1,.122-.658,2.777,2.777,0,0,1,.339-.649,3.277,3.277,0,0,1,.5-.564,2.356,2.356,0,0,1,.621-.4,1.712,1.712,0,0,1,.461-.131,2.872,2.872,0,0,1,.423-.038h9.989a.848.848,0,0,1,.518.16,1.308,1.308,0,0,1,.357.4,2.186,2.186,0,0,1,.217.517,1.941,1.941,0,0,1,.075.517,1.53,1.53,0,0,1-.075.423,2.086,2.086,0,0,1-.217.489,1.539,1.539,0,0,1-.348.4.7.7,0,0,1-.452.169h-9.387Z" transform="translate(3479.864 -4150.604)" fill="#fff"/>
          <path id="Path_907" data-name="Path 907" d="M-3276.474,4150.452a1.9,1.9,0,0,1,.5.075,1.838,1.838,0,0,1,.508.226,1.453,1.453,0,0,1,.4.367.813.813,0,0,1,.16.5v3.688h7.337v-3.687a.849.849,0,0,1,.15-.5,1.346,1.346,0,0,1,.385-.367,1.878,1.878,0,0,1,.5-.226,1.8,1.8,0,0,1,.489-.075,1.8,1.8,0,0,1,.508.084,2.046,2.046,0,0,1,.517.235,1.615,1.615,0,0,1,.4.368.731.731,0,0,1,.17.46v10.2a.785.785,0,0,1-.17.5,1.555,1.555,0,0,1-.414.367,1.965,1.965,0,0,1-.527.225,2.045,2.045,0,0,1-.526.076,1.589,1.589,0,0,1-.442-.076,2.114,2.114,0,0,1-.489-.216,1.483,1.483,0,0,1-.395-.339.683.683,0,0,1-.16-.442v-3.443h-7.337v3.443a.683.683,0,0,1-.16.442,1.429,1.429,0,0,1-.4.339,2.251,2.251,0,0,1-.508.216,1.68,1.68,0,0,1-.451.076,1.99,1.99,0,0,1-.508-.076,1.823,1.823,0,0,1-.518-.225,1.616,1.616,0,0,1-.4-.367.786.786,0,0,1-.169-.5v-10.2a.758.758,0,0,1,.16-.46,1.422,1.422,0,0,1,.4-.368,2.318,2.318,0,0,1,.508-.235A1.611,1.611,0,0,1-3276.474,4150.452Z" transform="translate(3358.117 -4150.452)" fill="#fff"/>
          <path id="Path_908" data-name="Path 908" d="M-3131.538,4162.961h-8.729a2.149,2.149,0,0,1-1.449-.659,3.947,3.947,0,0,1-.705-.837,1.654,1.654,0,0,1-.273-.875v-7.807a.965.965,0,0,1,.028-.253,1.77,1.77,0,0,1,.065-.2,2.6,2.6,0,0,1,.4-.7,3.582,3.582,0,0,1,.592-.6,3.292,3.292,0,0,1,.677-.424,1.608,1.608,0,0,1,.668-.159h8.578a1.7,1.7,0,0,1,.668.159,3.515,3.515,0,0,1,.715.424,4.393,4.393,0,0,1,.639.592,2.249,2.249,0,0,1,.424.667,1.8,1.8,0,0,1,.094.226.838.838,0,0,1,.038.263v7.807a1.583,1.583,0,0,1-.292.875,4.3,4.3,0,0,1-.706.818A2.153,2.153,0,0,1-3131.538,4162.961Zm-.7-9.406h-7.336v6.32h7.336Z" transform="translate(3237.729 -4150.452)" fill="#fff"/>
          <path id="Path_909" data-name="Path 909" d="M-3006.2,4150.623h11.268a.846.846,0,0,1,.517.16,1.313,1.313,0,0,1,.358.4,2.2,2.2,0,0,1,.216.517,1.941,1.941,0,0,1,.075.517,1.376,1.376,0,0,1-.084.423,2.155,2.155,0,0,1-.235.489,1.818,1.818,0,0,1-.348.4.637.637,0,0,1-.423.169h-4.251v8.333a.686.686,0,0,1-.16.442,1.5,1.5,0,0,1-.4.338,2.067,2.067,0,0,1-.5.216,1.7,1.7,0,0,1-.452.075,2.007,2.007,0,0,1-.508-.075,1.96,1.96,0,0,1-.527-.226,1.553,1.553,0,0,1-.414-.367.783.783,0,0,1-.169-.5v-8.239h-4.026a.662.662,0,0,1-.442-.169,1.632,1.632,0,0,1-.338-.4,2.435,2.435,0,0,1-.226-.489,1.385,1.385,0,0,1-.085-.423,1.942,1.942,0,0,1,.075-.517,2.186,2.186,0,0,1,.216-.517,1.308,1.308,0,0,1,.357-.4A.818.818,0,0,1-3006.2,4150.623Z" transform="translate(3117.342 -4150.604)" fill="#fff"/>
          <rect id="Rectangle_113" data-name="Rectangle 113" width="7.336" height="3.141" transform="translate(83.204 4.853)" fill="#fff"/>
        </g>
      </g>
    </g>
    <g id="Group_280" data-name="Group 280" transform="translate(142 64.482)">
      <g id="Group_278" data-name="Group 278" transform="translate(4.6 3.854)">
        <g id="Group_277" data-name="Group 277">
          <path id="Path_910" data-name="Path 910" d="M-3536.555,3994.564l1.545.556a2.322,2.322,0,0,1,1.394,2.963l-.424,1.179a2.323,2.323,0,0,1-2.963,1.394l-1.545-.556a2.323,2.323,0,0,1-1.394-2.964l.425-1.179A2.322,2.322,0,0,1-3536.555,3994.564Z" transform="translate(3549.459 -3960.236)" fill="url(#radial-gradient)"/>
          <path id="Rectangle_114" data-name="Rectangle 114" d="M2.942,0H3.33A2.943,2.943,0,0,1,6.273,2.943v0A2.942,2.942,0,0,1,3.331,5.885H2.943A2.943,2.943,0,0,1,0,2.942v0A2.942,2.942,0,0,1,2.942,0Z" transform="translate(40.32 28.352) rotate(123.756)" fill="url(#radial-gradient-2)"/>
          <path id="Path_911" data-name="Path 911" d="M-3316.368,3781.451l.577,1.3a2.432,2.432,0,0,1-1.235,3.2l-.946.419a2.431,2.431,0,0,1-3.2-1.235l-.577-1.3a2.432,2.432,0,0,1,1.235-3.2l.946-.419A2.432,2.432,0,0,1-3316.368,3781.451Z" transform="translate(3355.437 -3769.511)" fill="url(#radial-gradient-3)"/>
          <path id="Path_912" data-name="Path 912" d="M-3445.948,3685.068l2.272.6a1.969,1.969,0,0,1,1.4,2.4l-.5,1.9a1.968,1.968,0,0,1-2.4,1.4l-2.272-.6a1.967,1.967,0,0,1-1.4-2.4l.5-1.9A1.968,1.968,0,0,1-3445.948,3685.068Z" transform="translate(3468.364 -3685.003)" fill="url(#linear-gradient)"/>
          <path id="Path_913" data-name="Path 913" d="M-3577.653,3726.815l-1.1.889a2.952,2.952,0,0,1-4.138-.444h0a2.951,2.951,0,0,1,.445-4.137l1.1-.889a2.95,2.95,0,0,1,4.136.444h0A2.95,2.95,0,0,1-3577.653,3726.815Z" transform="translate(3588.119 -3717.543)" fill="url(#linear-gradient-2)"/>
          <path id="Path_914" data-name="Path 914" d="M-3585.413,3719.92a19.975,19.975,0,0,1-23.906,15.049,19.975,19.975,0,0,1-15.049-23.906,19.975,19.975,0,0,1,23.906-15.05A19.975,19.975,0,0,1-3585.413,3719.92Z" transform="translate(3624.88 -3694.35)" fill="url(#radial-gradient-4)"/>
          <path id="Path_915" data-name="Path 915" d="M-3500.973,3755.365c.15.867-.768,1.75-2.052,1.971s-2.445-.3-2.595-1.169.769-1.75,2.052-1.972S-3501.123,3754.5-3500.973,3755.365Z" transform="translate(3518.821 -3746.504)" fill="#4b68f2"/>
          <path id="Path_916" data-name="Path 916" d="M-3516.1,3750.083c-.226-1.307,1.159-2.637,3.093-2.972a3.883,3.883,0,0,1,3.445.858,3.581,3.581,0,0,0-3.69-1.186c-1.934.333-3.319,1.664-3.093,2.971a1.758,1.758,0,0,0,.465.9A1.686,1.686,0,0,1-3516.1,3750.083Z" transform="translate(3528.369 -3739.89)" fill="#4b68f2"/>
          <path id="Path_917" data-name="Path 917" d="M-3500.941,3760.631a1.151,1.151,0,0,0-.277-.566c.049.827-.841,1.638-2.064,1.849a2.545,2.545,0,0,1-2.317-.6c0,.04.005.081.012.122.15.867,1.311,1.391,2.595,1.169S-3500.791,3761.5-3500.941,3760.631Z" transform="translate(3518.789 -3751.771)" fill="#230753" opacity="0.15" style="mix-blend-mode: multiply;isolation: isolate"/>
          <path id="Path_918" data-name="Path 918" d="M-3418.778,3729.742c-.055.485-.8.8-1.667.7s-1.524-.571-1.468-1.056.8-.8,1.668-.7S-3418.723,3729.257-3418.778,3729.742Z" transform="translate(3444.354 -3723.843)" fill="#4b68f2"/>
          <path id="Path_919" data-name="Path 919" d="M-3375.24,3798.6a1.076,1.076,0,0,1,.112-1.4,1.8,1.8,0,0,0-.137.13c-.485.523-.588,1.216-.23,1.547s1.041.177,1.526-.348c.044-.047.081-.1.119-.147A1.076,1.076,0,0,1-3375.24,3798.6Z" transform="translate(3403.252 -3784.803)" fill="#4b68f2"/>
          <path id="Path_920" data-name="Path 920" d="M-3430.144,3725.16c.088-.776,1.284-1.277,2.67-1.119a3.919,3.919,0,0,1,1.518.479,3.611,3.611,0,0,0-1.828-.692c-1.386-.157-2.582.343-2.669,1.119a1.355,1.355,0,0,0,.832,1.211A1.161,1.161,0,0,1-3430.144,3725.16Z" transform="translate(3451.951 -3719.512)" fill="#4b68f2"/>
          <path id="Path_921" data-name="Path 921" d="M-3414.418,3730.373c.048-.419-.438-.829-1.13-1,.357.2.571.483.538.767-.055.484-.8.8-1.668.7a2.7,2.7,0,0,1-.337-.06,2.461,2.461,0,0,0,.93.289C-3415.22,3731.17-3414.473,3730.857-3414.418,3730.373Z" transform="translate(3439.994 -3724.473)" fill="#ff1d25" opacity="0.15" style="mix-blend-mode: multiply;isolation: isolate"/>
          <path id="Path_922" data-name="Path 922" d="M-3592.656,3806.665c.625.62.4,1.859-.5,2.767s-2.139,1.14-2.763.52-.4-1.859.5-2.767S-3593.281,3806.045-3592.656,3806.665Z" transform="translate(3599.445 -3792.913)" fill="#4b68f2"/>
          <path id="Path_923" data-name="Path 923" d="M-3567.934,3801.6c.666.662.56,1.883-.179,2.935.93-1.014,1.144-2.34.463-3.016a1.583,1.583,0,0,0-1.443-.354A1.606,1.606,0,0,1-3567.934,3801.6Z" transform="translate(3575.267 -3788.291)" fill="#ff1d25" opacity="0.15" style="mix-blend-mode: multiply;isolation: isolate"/>
          <path id="Path_924" data-name="Path 924" d="M-3607.34,3811.392c-.856-.849-.633-2.482.46-3.786-.1.09-.209.184-.31.285-1.335,1.344-1.669,3.179-.744,4.1s2.757.574,4.093-.771c.1-.1.194-.206.283-.312C-3604.854,3812.009-3606.485,3812.242-3607.34,3811.392Z" transform="translate(3610.281 -3794.058)" fill="#ff1d25" opacity="0.3" style="mix-blend-mode: multiply;isolation: isolate"/>
          <path id="Path_925" data-name="Path 925" d="M-3588.759,3806.665c-.625-.62-1.861-.387-2.763.52a3.346,3.346,0,0,0-.371.448,1.842,1.842,0,0,1,2.318-.146,1.842,1.842,0,0,1-.131,2.319,3.344,3.344,0,0,0,.445-.374C-3588.359,3808.524-3588.134,3807.286-3588.759,3806.665Z" transform="translate(3595.547 -3792.913)" fill="#230753" opacity="0.15" style="mix-blend-mode: multiply;isolation: isolate"/>
          <path id="Path_926" data-name="Path 926" d="M-3569.4,3882.053c1.352,1.344,1.559,3.329.46,4.435s-3.085.912-4.437-.431-1.559-3.329-.46-4.434S-3570.755,3880.709-3569.4,3882.053Z" transform="translate(3580.117 -3859.257)" fill="#4b68f2"/>
          <path id="Path_927" data-name="Path 927" d="M-3574.244,3883.429c1.1-1.106,3.085-.913,4.438.431a3.869,3.869,0,0,1,1.146,2.287,3.311,3.311,0,0,0-.735-4.094c-1.352-1.343-3.34-1.536-4.438-.431a2.589,2.589,0,0,0-.686,2.148A2.413,2.413,0,0,1-3574.244,3883.429Z" transform="translate(3580.11 -3859.257)" fill="#230753" opacity="0.15" style="mix-blend-mode: multiply;isolation: isolate"/>
          <path id="Path_928" data-name="Path 928" d="M-3576.941,3904.6a3.445,3.445,0,0,1-.854,1.748c-1.513,1.634-4.36,1.457-6.358-.394a5.434,5.434,0,0,1-1.787-3.564,5.153,5.153,0,0,0,1.734,4.561c2,1.851,4.845,2.027,6.358.394A3.624,3.624,0,0,0-3576.941,3904.6Z" transform="translate(3590.309 -3878.371)" fill="#ff1d25" opacity="0.3" style="mix-blend-mode: multiply;isolation: isolate"/>
          <path id="Path_929" data-name="Path 929" d="M-3540.633,3987.969c.842-.848,2.5-.562,3.713.639a3.44,3.44,0,0,1,1.125,2.721,3.219,3.219,0,0,0-1.049-3.059c-1.208-1.2-2.871-1.487-3.712-.639a1.674,1.674,0,0,0-.462.987A1.606,1.606,0,0,1-3540.633,3987.969Z" transform="translate(3550.294 -3953.757)" fill="#ff1d25" opacity="0.3" style="mix-blend-mode: multiply;isolation: isolate"/>
          <path id="Path_930" data-name="Path 930" d="M-3532.267,4003.474a1.139,1.139,0,0,1-.231.359c-.62.624-1.844.413-2.733-.47a2.831,2.831,0,0,1-.805-1.443,2.277,2.277,0,0,0,.72,2.372c.889.884,2.113,1.095,2.733.471A1.409,1.409,0,0,0-3532.267,4003.474Z" transform="translate(3545.965 -3966.9)" fill="#ff1d25" opacity="0.15" style="mix-blend-mode: multiply;isolation: isolate"/>
          <path id="Path_931" data-name="Path 931" d="M-3425.324,3918.741a4.917,4.917,0,0,1,.414,6.918,4.917,4.917,0,0,1-6.921-.367,4.917,4.917,0,0,1-.414-6.918A4.916,4.916,0,0,1-3425.324,3918.741Z" transform="translate(3454.639 -3891.469)" fill="#4b68f2"/>
          <path id="Path_932" data-name="Path 932" d="M-3431.522,3921.312a4.916,4.916,0,0,1,6.921.367,5.721,5.721,0,0,1,.919,1.19,5.394,5.394,0,0,0-1.635-4.128,4.917,4.917,0,0,0-6.921-.367,4.719,4.719,0,0,0-.505,5.728A4.291,4.291,0,0,1-3431.522,3921.312Z" transform="translate(3454.632 -3891.469)" fill="#230753" opacity="0.22" style="mix-blend-mode: multiply;isolation: isolate"/>
          <path id="Path_933" data-name="Path 933" d="M-3436.936,3959.262a6.859,6.859,0,0,1-1.847,3.371,6.553,6.553,0,0,1-9.261.23,6.253,6.253,0,0,1-1.833-4.519,6.337,6.337,0,0,0,1.678,5.892,6.554,6.554,0,0,0,9.262-.23A6.816,6.816,0,0,0-3436.936,3959.262Z" transform="translate(3469.364 -3928.139)" fill="#ff1d25" opacity="0.3" style="mix-blend-mode: multiply;isolation: isolate"/>
          <path id="Path_934" data-name="Path 934" d="M-3493.341,3836.419c-.226.363-.836.39-1.363.061s-.77-.888-.544-1.25.836-.39,1.362-.061S-3493.115,3836.057-3493.341,3836.419Z" transform="translate(3509.657 -3818.371)" fill="#4b68f2"/>
          <path id="Path_935" data-name="Path 935" d="M-3494.941,3843.044a.85.85,0,0,1-.078.677c-.306.491-1.133.528-1.847.083a1.95,1.95,0,0,1-.717-.76,1.808,1.808,0,0,0,.815,1.018c.714.445,1.541.408,1.846-.083A.948.948,0,0,0-3494.941,3843.044Z" transform="translate(3511.658 -3825.581)" fill="#4b68f2"/>
          <path id="Path_936" data-name="Path 936" d="M-3495.036,3835.57c.226-.362.836-.39,1.363-.061a1.514,1.514,0,0,1,.362.313,1.383,1.383,0,0,0-.567-.654c-.527-.329-1.136-.3-1.362.061a.815.815,0,0,0,.182.938A.662.662,0,0,1-3495.036,3835.57Z" transform="translate(3509.65 -3818.371)" fill="#230753" opacity="0.15" style="mix-blend-mode: multiply;isolation: isolate"/>
          <path id="Path_937" data-name="Path 937" d="M-3404.987,3852.41a.993.993,0,0,0-1.1-.016,1.134,1.134,0,0,1,.539.173.925.925,0,0,1,.4,1.233.705.705,0,0,1-.178.194.8.8,0,0,0,.738-.35A.926.926,0,0,0-3404.987,3852.41Z" transform="translate(3430.272 -3833.757)" fill="#230753" opacity="0.22" style="mix-blend-mode: color-burn;isolation: isolate"/>
          <path id="Path_938" data-name="Path 938" d="M-3415.62,3847.781a1.853,1.853,0,0,1-.973-2.411,1.432,1.432,0,0,1,.293-.371,1.475,1.475,0,0,0-.769.671,1.853,1.853,0,0,0,.971,2.411,1.973,1.973,0,0,0,2.244-.155A2.128,2.128,0,0,1-3415.62,3847.781Z" transform="translate(3440.191 -3827.319)" fill="#4b68f2"/>
          <path id="Path_939" data-name="Path 939" d="M-3317.051,3888.087a.7.7,0,0,1-.254.427.6.6,0,0,1-.836-.012.457.457,0,0,1-.079-.146.481.481,0,0,0,.094.375.6.6,0,0,0,.837.012A.639.639,0,0,0-3317.051,3888.087Z" transform="translate(3352.12 -3865.646)" fill="#230753" opacity="0.22" style="mix-blend-mode: color-burn;isolation: isolate"/>
          <path id="Path_940" data-name="Path 940" d="M-3369.187,3796.487a.632.632,0,0,1,.831.306.524.524,0,0,1-.051.442.576.576,0,0,0,.214-.631.631.631,0,0,0-.831-.306.739.739,0,0,0-.392.322A.783.783,0,0,1-3369.187,3796.487Z" transform="translate(3397.653 -3783.958)" fill="#230753" opacity="0.22" style="mix-blend-mode: color-burn;isolation: isolate"/>
          <path id="Path_941" data-name="Path 941" d="M-3306.816,3833.989a.63.63,0,0,0-.722-.512.757.757,0,0,0-.413.163.766.766,0,0,1,.239-.06.631.631,0,0,1,.723.511.539.539,0,0,1-.22.46A.581.581,0,0,0-3306.816,3833.989Z" transform="translate(3342.981 -3817.069)" fill="#230753" opacity="0.22" style="mix-blend-mode: color-burn;isolation: isolate"/>
          <path id="Path_942" data-name="Path 942" d="M-3357.436,3760.117c.17-.375.857-.428,1.535-.121a2.27,2.27,0,0,1,.483.294,1.838,1.838,0,0,0-.874-.743c-.678-.307-1.366-.253-1.535.121-.124.274.068.642.444.941A.557.557,0,0,1-3357.436,3760.117Z" transform="translate(3387.379 -3751.133)" fill="#4b68f2"/>
          <g id="Group_276" data-name="Group 276" transform="translate(0 23.433)">
            <g id="Group_275" data-name="Group 275" transform="translate(0.234)" opacity="0.15" style="mix-blend-mode: multiply;isolation: isolate">
              <path id="Path_943" data-name="Path 943" d="M-3621.185,3899.092c-.278-1.233-.94-2.141-1.475-2.014a.48.48,0,0,0-.186.113,3.727,3.727,0,0,1,1.049,2.056,3.569,3.569,0,0,1-.188,2.245.43.43,0,0,0,.332.052C-3621.116,3901.424-3620.907,3900.326-3621.185,3899.092Z" transform="translate(3622.845 -3897.066)" fill="#ff1d25" opacity="0.15" style="mix-blend-mode: multiply;isolation: isolate"/>
            </g>
            <path id="Path_944" data-name="Path 944" d="M-3623.685,3900.183c.27,1.195.243,2.219-.059,2.287s-.765-.845-1.034-2.04-.243-2.219.059-2.286S-3623.954,3898.988-3623.685,3900.183Z" transform="translate(3624.964 -3898.021)" fill="#4b68f2"/>
            <path id="Path_945" data-name="Path 945" d="M-3622.735,3913.911c-.026-.116-.056-.228-.085-.338.191,1.042.145,1.883-.127,1.945s-.675-.679-.949-1.7c.021.113.042.226.068.342.269,1.2.732,2.108,1.034,2.04S-3622.465,3915.105-3622.735,3913.911Z" transform="translate(3624.014 -3911.749)" fill="#ff1d25" opacity="0.3" style="mix-blend-mode: multiply;isolation: isolate"/>
          </g>
          <path id="Path_946" data-name="Path 946" d="M-3313.079,3833.55a.967.967,0,0,1-1.107-.788.836.836,0,0,1,.311-.706.892.892,0,0,0-.549.865.965.965,0,0,0,1.106.787,1.126,1.126,0,0,0,.636-.267A1.182,1.182,0,0,1-3313.079,3833.55Z" transform="translate(3348.742 -3815.807)" fill="#4b68f2"/>
        </g>
        <path id="Path_947" data-name="Path 947" d="M-3614.786,3731.815a19.98,19.98,0,0,1,2.988-24.973,20.036,20.036,0,0,0-3.735,1.84,19.975,19.975,0,0,0-6.262,27.545,19.975,19.975,0,0,0,27.545,6.263,20.041,20.041,0,0,0,3.275-2.573A19.98,19.98,0,0,1-3614.786,3731.815Z" transform="translate(3624.879 -3704.428)" fill="#4b68f2" style="mix-blend-mode: soft-light;isolation: isolate"/>
      </g>
      <g id="Group_279" data-name="Group 279" transform="translate(0)">
        <path id="Path_948" data-name="Path 948" d="M-3666.594,3658.032v-7.572a.331.331,0,0,1,.331-.331h7.572a.331.331,0,0,1,.331.331v1.1a.332.332,0,0,1-.331.331h-6.14v6.14a.332.332,0,0,1-.332.332h-1.1A.332.332,0,0,1-3666.594,3658.032Z" transform="translate(3666.594 -3650.13)" fill="#fff"/>
        <path id="Path_949" data-name="Path 949" d="M-3294.783,3650.13h7.571a.331.331,0,0,1,.332.331v7.572a.332.332,0,0,1-.332.332h-1.1a.332.332,0,0,1-.332-.332v-6.14h-6.14a.331.331,0,0,1-.332-.331v-1.1A.331.331,0,0,1-3294.783,3650.13Z" transform="translate(3336.163 -3650.13)" fill="#fff"/>
        <path id="Path_950" data-name="Path 950" d="M-3286.88,4021.941v7.572a.331.331,0,0,1-.332.331h-7.571a.331.331,0,0,1-.332-.331v-1.1a.331.331,0,0,1,.332-.331h6.14v-6.14a.332.332,0,0,1,.332-.332h1.1A.332.332,0,0,1-3286.88,4021.941Z" transform="translate(3336.163 -3980.561)" fill="#fff"/>
        <path id="Path_951" data-name="Path 951" d="M-3658.691,4029.844h-7.572a.331.331,0,0,1-.331-.331v-7.572a.331.331,0,0,1,.331-.332h1.1a.332.332,0,0,1,.332.332v6.14h6.14a.332.332,0,0,1,.331.331v1.1A.331.331,0,0,1-3658.691,4029.844Z" transform="translate(3666.594 -3980.561)" fill="#fff"/>
      </g>
    </g>
  </g>
</svg>
