<svg xmlns="http://www.w3.org/2000/svg" xmlns:xlink="http://www.w3.org/1999/xlink" width="50" height="51.178" viewBox="0 0 50 51.178"><defs><clipPath id="a"><rect width="50" height="50" rx="8" transform="translate(8983 -168)" fill="#ffc845"/></clipPath></defs><g transform="translate(-8995 169.178)"><rect width="50" height="50" rx="8" transform="translate(8995 -168)" fill="#f4364c"/><g transform="translate(12)" clip-path="url(#a)"><g transform="translate(8768.614 -619.471)"><g transform="translate(194.014 465.649)"><g transform="translate(29.31 14.205)"><path d="M1010.142,1150l-.2-.025a2.1,2.1,0,0,1,.95-1.4c.732-.463.482-1.91.479-1.925l.2-.035a3.8,3.8,0,0,1,.039.849,1.56,1.56,0,0,1-.607,1.28A1.923,1.923,0,0,0,1010.142,1150Z" transform="translate(-1009.944 -1146.617)" fill="#283689"/></g><g transform="translate(30.645 14.208)"><path d="M1042.106,1150.1a1.1,1.1,0,0,1,.381-1.461c.716-.453.081-1.86.074-1.874l.181-.083a3.646,3.646,0,0,1,.252.836,1.181,1.181,0,0,1-.4,1.29.884.884,0,0,0-.313,1.2Z" transform="translate(-1041.969 -1146.682)" fill="#283689"/></g><g transform="translate(15.62 21.833)"><path d="M738.358,1335.3h-56.64l5.709-5.815h45.956Z" transform="translate(-681.718 -1329.482)" fill="#505aba"/><g transform="translate(0 5.815)"><rect width="56.64" height="0.743" fill="#2b478b"/></g><g transform="translate(3.23 0.324)"><g transform="translate(2.806 0.896)"><rect width="45.144" height="0.198" fill="#2b478b"/></g><g transform="translate(1.275 2.11)"><rect width="47.885" height="0.198" fill="#2b478b"/></g><g transform="translate(0 3.453)"><rect width="50.435" height="0.198" fill="#2b478b"/></g><g transform="translate(3.034)"><rect width="2.041" height="0.612" fill="#2b478b"/></g><g transform="translate(18.668)"><rect width="2.041" height="0.612" fill="#2b478b"/></g><g transform="translate(21.951)"><rect width="2.041" height="0.612" fill="#2b478b"/></g><g transform="translate(30.677)"><rect width="2.041" height="0.612" fill="#2b478b"/></g><g transform="translate(33.712)"><rect width="2.041" height="0.612" fill="#2b478b"/></g><g transform="translate(36.995)"><rect width="2.041" height="0.612" fill="#2b478b"/></g></g></g><g transform="translate(81.211 11.655)"><path d="M2266.409,1091.392h-.4c-.9-1.323-1.689-1.384-3.208-1.5-.468-.036-1-.077-1.618-.161a2.965,2.965,0,0,1-2.366-1.789,8.062,8.062,0,0,0-.845-1.2c-1.1-1.25-3.588-.885-3.614-.881l-.051-.33c.109-.017,2.689-.4,3.915.99a8.464,8.464,0,0,1,.88,1.247,2.636,2.636,0,0,0,2.126,1.632c.611.082,1.136.123,1.6.159C2264.478,1089.685,2265.364,1089.753,2266.409,1091.392Z" transform="translate(-2254.306 -1085.468)" fill="#2b478b"/></g><g transform="translate(71.257 9.922)"><path d="M4.977,0h0A4.977,4.977,0,0,1,9.954,4.977v0A4.977,4.977,0,0,1,4.977,9.954h0A4.977,4.977,0,0,1,0,4.977v0A4.977,4.977,0,0,1,4.977,0Z" fill="#778de8"/><g transform="translate(1.555 1.336)"><path d="M2059.79,1079.363a3.424,3.424,0,0,1-.04.526c-.006.042-.014.083-.022.124a3.392,3.392,0,0,1-.278.838c-.012.025-.025.05-.038.075a3.427,3.427,0,0,1-.911,1.11l-.061.048a3.4,3.4,0,0,1-1.318.613h0l-.088.019h0a3.279,3.279,0,0,1-.376.052c-.042,0-.083.007-.125.008h0c-.052,0-.1,0-.158,0a3.411,3.411,0,0,1-1.043-.162c-.052-.016-.1-.033-.152-.053a3.177,3.177,0,0,1-.343-.15l-.074-.038a3.436,3.436,0,0,1-1.189-1.057c-.015-.022-.031-.043-.045-.065a3.41,3.41,0,0,1-.466-1.049q-.02-.078-.035-.157a3.434,3.434,0,0,1-.056-.391c0-.033-.005-.066-.007-.1h0c0-.065-.005-.13-.005-.195a3.424,3.424,0,0,1,.155-1.02c.009-.028.018-.057.028-.085a3.411,3.411,0,0,1,.753-1.244l.055-.056a3.408,3.408,0,0,1,1.2-.785l.079-.029a3.438,3.438,0,0,1,1.71-.151l.1.018.069.014c.045.01.089.02.134.032a3.4,3.4,0,0,1,1.323.682l.06.051a3.416,3.416,0,0,1,.922,1.3c.011.026.021.051.03.077a3.369,3.369,0,0,1,.18.7q.01.067.017.136h0A3.409,3.409,0,0,1,2059.79,1079.363Z" transform="translate(-2052.957 -1075.946)" fill="#e27227"/><g transform="translate(0.006 0.047)"><g transform="translate(0.93 0.965)"><path d="M2080,1105.273l-.062.048-.455-.507-.052-.058-.935-1.043-.052-.058-1.056-1.177-.052-.058-1.042-1.163-.052-.058-.85-.948.055-.056.854.952.052.058,1.042,1.162.052.058,1.056,1.177.052.058.936,1.043.052.058Z" transform="translate(-2075.391 -1100.195)" fill="#1c3870"/></g><g transform="translate(2.186 0.15)"><path d="M2109.815,1085.375c-.013.025-.025.05-.038.075l-.313-.349-.052-.058-.935-1.043-.052-.058-1.056-1.177-.052-.058-1.042-1.163-.052-.058-.708-.789.079-.029.688.767.052.058,1.042,1.162.052.058,1.056,1.177.052.058.936,1.043.052.058Z" transform="translate(-2105.514 -1080.668)" fill="#1c3870"/></g><g transform="translate(4.141 0.032)"><path d="M2155.033,1080.662c.007.045.012.09.017.136l-.5-.559-.052-.058L2153.44,1079l-.052-.058-1.005-1.12c.045.01.09.02.134.032l.929,1.035.052.058,1.056,1.177.052.058Z" transform="translate(-2152.383 -1077.825)" fill="#1c3870"/></g><g transform="translate(0.149 2.265)"><path d="M2060.676,1135.81l-.088.019h0l-.142-.159-.052-.058-.936-1.043-.052-.058-1.055-1.177-.052-.059-1.042-1.162-.053-.059-.537-.6c.009-.028.018-.057.028-.085l.567.633.052.058,1.043,1.162.052.058,1.056,1.177.052.058.936,1.043.052.058Z" transform="translate(-2056.666 -1131.371)" fill="#1c3870"/></g><path d="M2057.167,1077.079l-1.067.957-.059.052-1.056.948-.058.052-1.036.929-.058.052-.732.656c0-.033-.005-.066-.007-.1h0l.687-.615.058-.052,1.036-.929.058-.052,1.056-.948.058-.052,1.023-.917Z" transform="translate(-2053.095 -1077.061)" fill="#1c3870"/><g transform="translate(0.565 0.746)"><path d="M2071.73,1095l-.4.36-.058.052-1.1.986-.058.052-1.056.947-.058.052-1.036.929-.058.052-.9.8-.058.052-.271.243c-.015-.021-.031-.043-.045-.065l.264-.236.058-.052.895-.8.058-.052,1.035-.929.058-.052,1.056-.947.058-.052,1.1-.986.058-.052.394-.354Z" transform="translate(-2066.636 -1094.947)" fill="#1c3870"/></g><g transform="translate(1.799 2.094)"><path d="M2101.032,1127.352l-.247.221-.058.052-1.1.985-.058.052-1.056.947-.058.052-1.036.929-.058.052-.895.8-.058.052-.115.1-.074-.038.138-.123.058-.052.895-.8.058-.052,1.036-.929.058-.052,1.056-.947.058-.052,1.1-.985.058-.052.269-.241C2101.013,1127.3,2101.023,1127.326,2101.032,1127.352Z" transform="translate(-2096.22 -1127.275)" fill="#1c3870"/></g><g transform="translate(3.569 3.896)"><path d="M2141.886,1170.462c-.006.042-.014.083-.022.125l-.571.512-.058.052-1.057.948-.058.052-1.035.929-.059.052-.234.211c-.042,0-.083.007-.125.008l.308-.276.058-.052,1.035-.929.059-.052,1.056-.948.058-.052Z" transform="translate(-2138.668 -1170.462)" fill="#1c3870"/></g><g transform="translate(0.063 4.055)"><path d="M2056.915,1176.851c-.051-.016-.1-.034-.152-.053l-.227-.253-.052-.058-1.056-1.177-.052-.058-.73-.813c-.013-.052-.025-.1-.035-.157l.823.918.052.058,1.056,1.177.052.058Z" transform="translate(-2054.611 -1174.282)" fill="#1c3870"/></g></g></g></g><g transform="translate(71.257 0)"><path d="M4.977,0h0A4.977,4.977,0,0,1,9.954,4.977v0A4.977,4.977,0,0,1,4.977,9.954h0A4.977,4.977,0,0,1,0,4.977v0A4.977,4.977,0,0,1,4.977,0Z" fill="#8c9df4"/><g transform="translate(1.555 1.336)"><path d="M2059.79,841.486a3.424,3.424,0,0,1-.04.526c-.006.042-.014.083-.022.124a3.39,3.39,0,0,1-.278.838c-.012.025-.025.05-.038.075a3.431,3.431,0,0,1-.911,1.11l-.061.048a3.4,3.4,0,0,1-1.318.613h0l-.088.019h0a3.333,3.333,0,0,1-.376.052c-.042,0-.083.007-.125.008h0c-.052,0-.1,0-.158,0a3.41,3.41,0,0,1-1.043-.163c-.052-.016-.1-.034-.152-.053a3.142,3.142,0,0,1-.343-.15l-.074-.038a3.429,3.429,0,0,1-1.189-1.057c-.015-.021-.031-.043-.045-.065a3.407,3.407,0,0,1-.466-1.049q-.02-.078-.035-.157a3.426,3.426,0,0,1-.056-.391c0-.033-.005-.066-.007-.1h0c0-.065-.005-.13-.005-.195a3.424,3.424,0,0,1,.155-1.02c.009-.028.018-.057.028-.085a3.414,3.414,0,0,1,.753-1.244l.055-.056a3.408,3.408,0,0,1,1.2-.785l.079-.029a3.433,3.433,0,0,1,1.71-.15l.1.018.069.014c.045.01.089.02.134.032a3.4,3.4,0,0,1,1.323.682l.06.051a3.417,3.417,0,0,1,.922,1.3c.011.026.021.051.03.077a3.369,3.369,0,0,1,.18.7q.01.067.017.136h0A3.409,3.409,0,0,1,2059.79,841.486Z" transform="translate(-2052.957 -838.069)" fill="#e27227"/><g transform="translate(0.006 0.047)"><g transform="translate(0.93 0.965)"><path d="M2080,867.4l-.062.048-.455-.507-.052-.058-.935-1.043-.052-.058-1.056-1.177-.052-.058-1.042-1.162-.052-.058-.85-.948.055-.056.854.952.052.058,1.042,1.162.052.058,1.056,1.177.052.058.936,1.043.052.058Z" transform="translate(-2075.391 -862.318)" fill="#1c3870"/></g><g transform="translate(2.186 0.15)"><path d="M2109.815,847.5c-.013.025-.025.05-.038.075l-.313-.349-.052-.058-.935-1.043-.052-.058-1.056-1.177-.052-.058-1.042-1.163-.052-.058-.708-.789.079-.029.688.767.052.058,1.042,1.162.052.058,1.056,1.177.052.058.936,1.043.052.058Z" transform="translate(-2105.514 -842.792)" fill="#1c3870"/></g><g transform="translate(4.141 0.032)"><path d="M2155.033,842.785q.01.067.017.136l-.5-.559-.052-.058-1.056-1.177-.052-.058-1.005-1.12c.045.01.09.02.134.032l.929,1.035.052.058,1.056,1.177.052.058Z" transform="translate(-2152.383 -839.948)" fill="#1c3870"/></g><g transform="translate(0.149 2.265)"><path d="M2060.676,897.933l-.088.019h0l-.142-.159-.052-.058-.936-1.043-.052-.058-1.055-1.177-.052-.059-1.042-1.162-.053-.059-.537-.6c.009-.028.018-.057.028-.085l.567.633.052.058,1.043,1.162.052.058,1.056,1.177.052.058.936,1.043.052.058Z" transform="translate(-2056.666 -893.494)" fill="#1c3870"/></g><path d="M2057.167,839.2l-1.067.958-.059.052-1.056.948-.058.052-1.036.929-.058.052-.732.656c0-.033-.005-.066-.007-.1h0l.687-.615.058-.052,1.036-.929.058-.052,1.056-.948.058-.052,1.023-.917Z" transform="translate(-2053.095 -839.185)" fill="#1c3870"/><g transform="translate(0.565 0.746)"><path d="M2071.73,857.121l-.4.36-.058.052-1.1.986-.058.052-1.056.947-.058.052-1.036.929-.058.052-.9.8-.058.052-.271.243c-.015-.021-.031-.043-.045-.065l.264-.236.058-.052.895-.8.058-.052,1.035-.929.058-.052,1.056-.947.058-.052,1.1-.986.058-.052.394-.354Z" transform="translate(-2066.636 -857.07)" fill="#1c3870"/></g><g transform="translate(1.799 2.094)"><path d="M2101.032,889.475l-.247.222-.058.052-1.1.985-.058.052-1.056.947-.058.052-1.036.929-.058.052-.895.8-.058.052-.115.1-.074-.038.138-.123.058-.052.895-.8.058-.052,1.036-.929.058-.052,1.056-.947.058-.052,1.1-.985.058-.052.269-.241C2101.013,889.424,2101.023,889.449,2101.032,889.475Z" transform="translate(-2096.22 -889.398)" fill="#1c3870"/></g><g transform="translate(3.569 3.896)"><path d="M2141.886,932.585c-.006.042-.014.083-.022.124l-.571.512-.058.052-1.057.948-.058.052-1.035.929-.059.052-.234.211c-.042,0-.083.007-.125.008l.308-.276.058-.052,1.035-.929.059-.052,1.056-.948.058-.052Z" transform="translate(-2138.668 -932.585)" fill="#1c3870"/></g><g transform="translate(0.063 4.055)"><path d="M2056.915,938.974c-.051-.016-.1-.034-.152-.053l-.227-.253-.052-.058-1.056-1.177-.052-.058-.73-.813c-.013-.052-.025-.1-.035-.157l.823.918.052.058,1.056,1.177.052.058Z" transform="translate(-2054.611 -936.405)" fill="#1c3870"/></g></g></g></g><g transform="translate(77.495 20.535)"><g transform="translate(0 0.638)"><g transform="translate(0 0)"><path d="M2165.31,1318.72l5.28-4.751a2.153,2.153,0,0,1,1.312-.3l6.773.392c.51.03.748.21.533.4l-5.28,4.751a2.152,2.152,0,0,1-1.312.3l-6.774-.392C2165.333,1319.094,2165.095,1318.914,2165.31,1318.72Z" transform="translate(-2165.231 -1313.668)" fill="#1b376d"/></g><path d="M2179.287,1314.244v-.576l-13.926,4.479-.12.125-.011.61,6.152.2Z" transform="translate(-2165.23 -1313.668)" fill="#1b376d"/></g><g transform="translate(0.201 0.042)"><path d="M2176.425,1299.4l6.658.385c.535.031.784.221.559.424l-4.963,4.466a3.251,3.251,0,0,1-1.981.449l-5.966-.345c-.567-.033-.832-.234-.593-.449l5.207-4.685A1.768,1.768,0,0,1,2176.425,1299.4Z" transform="translate(-2170.051 -1299.396)" fill="#505aba"/></g><path d="M2179.284,1299.021c-.023-.125-.248-.221-.61-.242l-6.774-.392a2.149,2.149,0,0,0-1.312.3l-5.28,4.75c-.074.067-.1.132-.069.19h0c.037.081.163.148.36.185h0a1.829,1.829,0,0,0,.24.029l5.953.344h0l.821.048a2.152,2.152,0,0,0,1.312-.3l3.67-3.3h0l1.317-1.185.292-.262a.2.2,0,0,0,.079-.141A.118.118,0,0,0,2179.284,1299.021Zm-.311.148-.277.249h0l-1.874,1.687,0,0-3.056,2.749h0l-.058.052h0l-.012.011a1.6,1.6,0,0,1-.979.222h-.03l-.749-.044-6-.347a1.289,1.289,0,0,1-.235-.034c-.211-.053-.285-.157-.163-.268l.012-.01h0l.058-.052,5.209-4.688a1.614,1.614,0,0,1,.98-.221l6.773.391c.323.019.5.119.448.238A.181.181,0,0,1,2178.973,1299.169Z" transform="translate(-2165.229 -1298.383)" fill="#2b478b"/><g transform="translate(0.075 4.995)"><path d="M2167.464,1418.552l6.895.4a1.958,1.958,0,0,0,1.193-.27l.056-.051-8.385-.485-.136.122C2166.936,1418.4,2167.1,1418.531,2167.464,1418.552Z" transform="translate(-2167.031 -1418.145)" fill="#2b478b"/></g><g transform="translate(0.996 5.829)"><path d="M2204.679,1442.053l-.05.112c-.034.074-.067.147-.1.219-1.273-.01-2.894.1-4.578.215-4.357.3-8.861.6-10.3-.792a1.44,1.44,0,0,1-.507-1.457,3.7,3.7,0,0,1,1.853-1.818h0c.2-.108.376-.2.518-.262h0c.172-.08.288-.127.308-.134l.1.147.1.148c-.005,0-.129.052-.318.142-.609.288-1.9.989-2.138,1.847a1.157,1.157,0,0,0,.422,1.178c1.3,1.259,5.883.946,9.929.669C2201.67,1442.147,2203.357,1442.032,2204.679,1442.053Z" transform="translate(-2189.098 -1438.135)" fill="#1b376d"/></g></g><g transform="translate(0.73 1.472)"><g transform="translate(7.387)"><path d="M501.927,850.08a16.887,16.887,0,0,1,1.477-8.506.431.431,0,0,1,.824.164,16.011,16.011,0,0,1-.811,8.665C501.38,855.513,501.927,850.08,501.927,850.08Z" transform="translate(-501.86 -841.316)" fill="#a8d29f"/></g><g transform="translate(9.443 1.389)"><path d="M551.551,882.912a16.888,16.888,0,0,1,3-8.1.431.431,0,0,1,.781.31,16.012,16.012,0,0,1-2.37,8.374C550.027,888.155,551.551,882.912,551.551,882.912Z" transform="translate(-551.155 -874.625)" fill="#a8d29f"/></g><g transform="translate(8.252 0.256)"><path d="M522.857,855.956a16.888,16.888,0,0,1,2.437-8.283.431.431,0,0,1,.8.256,16.01,16.01,0,0,1-1.793,8.516C521.695,861.292,522.857,855.956,522.857,855.956Z" transform="translate(-522.599 -847.459)" fill="#82b378"/></g><g transform="translate(9.458 3.105)"><path d="M552.132,921.65a13.182,13.182,0,0,1,3.464-5.782c.27-.241.624-.018.555.35a12.5,12.5,0,0,1-3.023,6.085C550.209,925.455,552.132,921.65,552.132,921.65Z" transform="translate(-551.51 -915.767)" fill="#82b378"/></g><g transform="translate(4.089 0.541)"><path d="M425.355,863.055a16.888,16.888,0,0,0-1.477-8.506.431.431,0,0,0-.824.163,16.012,16.012,0,0,0,.811,8.665C425.9,868.488,425.355,863.055,425.355,863.055Z" transform="translate(-422.792 -854.291)" fill="#a8d29f"/></g><g transform="translate(0.49 1.93)"><path d="M340.277,895.887a16.888,16.888,0,0,0-3-8.1.431.431,0,0,0-.781.31,16.011,16.011,0,0,0,2.37,8.374C341.8,901.131,340.277,895.887,340.277,895.887Z" transform="translate(-336.5 -887.6)" fill="#a8d29f"/></g><g transform="translate(2.324 0.797)"><path d="M383.744,868.932a16.888,16.888,0,0,0-2.437-8.283.431.431,0,0,0-.8.256,16.011,16.011,0,0,0,1.793,8.516C384.907,874.267,383.744,868.932,383.744,868.932Z" transform="translate(-380.473 -860.435)" fill="#82b378"/></g><g transform="translate(6.114 0.662)"><path d="M473.515,866.068a16.888,16.888,0,0,0-.814-8.6.431.431,0,0,0-.834.1,16.012,16.012,0,0,0,.138,8.7C473.64,871.527,473.515,866.068,473.515,866.068Z" transform="translate(-471.329 -857.186)" fill="#82b378"/></g><g transform="translate(0 3.646)"><path d="M328.771,934.625a13.185,13.185,0,0,0-3.464-5.782c-.27-.241-.624-.018-.554.35a12.5,12.5,0,0,0,3.023,6.085C330.694,938.43,328.771,934.625,328.771,934.625Z" transform="translate(-324.744 -928.742)" fill="#82b378"/></g><g transform="translate(0.852 8.629)"><path d="M.33,0H12.571a0,0,0,0,1,0,0V2.261A6.285,6.285,0,0,1,6.285,8.546h0A6.285,6.285,0,0,1,0,2.261V.33A.33.33,0,0,1,.33,0Z" fill="#2b478b"/></g></g><g transform="translate(57.782 20.452)"><g transform="translate(2.467 1.49)"><path d="M1752.265,1332.129s-.72,1.781-.466,1.967,1.126-.57,1.357-1.369S1752.265,1332.129,1752.265,1332.129Z" transform="translate(-1751.745 -1332.106)" fill="#ea9963"/></g><path d="M1710.3,1309.906h-9.664c-.121-.293-.25-.6-.385-.913-.873-2.032-1.968-4.321-2.577-4.593-1.121-.5-1.8-.063-3.191-1.691s-2.282-2.182-1.734-2.558,2.357,1.037,2.859.976c.4-.049.613-1.026.58-2.057a6.216,6.216,0,0,0-.077-.8h0c-.021-.132-.047-.261-.078-.385a3.378,3.378,0,0,0-.177-.535.658.658,0,0,1-.021-.671c.313-.431,1.456-.224,1.888-.121.193.046.789-.315,1.206-.11.648.319,1.025-.049,1.455.228.3.2.931.287,1.146.569a15.7,15.7,0,0,1,.913,2.725,11.17,11.17,0,0,0,1.77,3.714,56.085,56.085,0,0,0,4.089,4.286C1708.993,1308.638,1709.682,1309.306,1710.3,1309.906Z" transform="translate(-1692.59 -1296.378)" fill="#ffb27d"/><g transform="translate(0.897 0.291)"><path d="M1716.448,1303.366s-2.66,2.178-2.315,2.47,1.223.005,2.658-.914S1716.448,1303.366,1716.448,1303.366Z" transform="translate(-1714.102 -1303.366)" fill="#ffb27d"/></g><g transform="translate(7.002 10.906)"><path d="M1871.966,1560.472h-11.4l-.109-.226a4.9,4.9,0,0,1,.665-.687c1.163-1.017,3.848-2.637,8.051-1.027q.281.107.57.234Z" transform="translate(-1860.456 -1557.851)" fill="#2b478b"/></g></g><g transform="translate(13.864 21.374)"><g transform="translate(1.346)"><g transform="translate(16.632 1.626)"><path d="M1071.631,1357.542s.462,1.865.184,2.013-1.034-.724-1.15-1.547S1071.631,1357.542,1071.631,1357.542Z" transform="translate(-1070.656 -1357.465)" fill="#ea9963"/></g><path d="M689.91,1325.117c-1.611,1.415-2.217.886-3.4,1.223-.641.183-2.049,2.294-3.2,4.183-.1.161-.195.321-.289.478l-11.118-.04c.951-.679,2.268-1.626,3.581-2.593a56.172,56.172,0,0,0,4.654-3.666,11.178,11.178,0,0,0,2.277-3.427c.537-.971.521-2.113,1.263-2.1.366.006.688-.471,1.026-.626.465-.213.909.261,1.6.037.443-.144,1.049.246,1.246.228a3.988,3.988,0,0,1,1.712.039c.231.118.307.346.05.761a3.338,3.338,0,0,0-.251.5q-.063.157-.118.326a6.277,6.277,0,0,0-.2.829c-.179,1.016-.108,2.013.283,2.119.488.132,2.508-1.224,3-.775S691.521,1323.7,689.91,1325.117Z" transform="translate(-671.905 -1318.491)" fill="#ffb27d"/><g transform="translate(16.43 0.348)"><path d="M1066.715,1326.824s4.018,1.2,3.809,1.6-2.312.333-3.988.026S1066.715,1326.824,1066.715,1326.824Z" transform="translate(-1065.834 -1326.824)" fill="#ffb27d"/></g></g><g transform="translate(0 9.604)"><path d="M652.753,1551.653l-.663,0-11.118-.04-1.346,0,4.33-2.437q.3-.085.6-.151c4.389-1,6.819.984,7.826,2.154A5.949,5.949,0,0,1,652.753,1551.653Z" transform="translate(-639.626 -1548.745)" fill="#2b478b"/></g></g><g transform="translate(47.568 29.949)"><g transform="translate(0 0.307)"><path d="M1447.7,1532.048a.626.626,0,0,0,.184.444.627.627,0,0,0,.444.184h8.834a.628.628,0,0,0,0-1.256h-8.834A.628.628,0,0,0,1447.7,1532.048Z" transform="translate(-1447.703 -1531.42)" fill="#2b478b"/></g><g transform="translate(0.577)"><path d="M1461.644,1524.264h3.029a.1.1,0,0,0,.1-.1h0a.1.1,0,0,0-.1-.1h-3.029a.1.1,0,0,0-.1.1h0A.1.1,0,0,0,1461.644,1524.264Z" transform="translate(-1461.548 -1524.071)" fill="#2b478b"/></g><g transform="translate(0.841 0.193)"><rect width="0.328" height="0.114" transform="translate(0.328 0.114) rotate(180)" fill="#233862"/></g><g transform="translate(0.076 1.235)"><path d="M1449.531,1553.688a.629.629,0,0,0,.552.328h1.871v-.328Z" transform="translate(-1449.531 -1553.688)" fill="#233862"/></g><g transform="translate(1.17 0.307)"><path d="M1485.835,1531.864v.368a.443.443,0,0,1-.444.444h-9.2a.443.443,0,0,1-.444-.444v-.368a.444.444,0,0,1,.444-.444h9.2A.444.444,0,0,1,1485.835,1531.864Z" transform="translate(-1475.744 -1531.42)" fill="#f99746"/></g><g transform="translate(1.185 1.235)"><path d="M1486.175,1553.688a.444.444,0,0,1-.429.328h-9.2a.444.444,0,0,1-.429-.328Z" transform="translate(-1476.115 -1553.688)" fill="#ef873a"/></g><g transform="translate(10.346 0.307)"><path d="M1695.764,1532.051a.7.7,0,0,0,.183.485l.007.008a.447.447,0,0,0,.315.137,2.95,2.95,0,0,0,.934-.468c.143-.093.242-.163.242-.163s-.1-.069-.242-.163a2.946,2.946,0,0,0-.934-.468.412.412,0,0,0-.154.03.5.5,0,0,0-.213.168.7.7,0,0,0-.128.307.03.03,0,0,0,0,0A.75.75,0,0,0,1695.764,1532.051Z" transform="translate(-1695.764 -1531.42)" fill="#8c9df4"/><g transform="translate(0 0.51)"><path d="M1695.764,1543.758a.7.7,0,0,0,.183.485l1.416-.487-1.59-.119A.752.752,0,0,0,1695.764,1543.758Z" transform="translate(-1695.764 -1543.637)" fill="#6980e2"/></g><g transform="translate(0.138 0.03)"><path d="M1699.068,1532.306l1.413.386-1.2-.554A.5.5,0,0,0,1699.068,1532.306Z" transform="translate(-1699.068 -1532.138)" fill="#9fb1ff"/></g><g transform="translate(1.347 0.468)"><path d="M1728.071,1542.8a.174.174,0,0,0,.092.163c.143-.093.241-.163.241-.163s-.1-.07-.241-.163A.174.174,0,0,0,1728.071,1542.8Z" transform="translate(-1728.071 -1542.637)" fill="#182d4c"/></g></g></g><g transform="translate(0 20.982)"><g transform="translate(0.153 1.169)"><path d="M314.059,1344.192a5.119,5.119,0,0,0,1.148-.131,6.919,6.919,0,0,0,4.248-3.215,6.506,6.506,0,0,0-.947-2.233h0a3.177,3.177,0,0,0-2.334-1.493,2.137,2.137,0,0,0-1.463.539c-.609.52-.93,1.245-1.4,1.349a3.4,3.4,0,0,0-1.394.706c-.07.058-.137.118-.2.182h0c-.027.026-.053.052-.079.08l0,0a2.285,2.285,0,0,0-.623,2.315,2.592,2.592,0,0,0,.316.648A3.194,3.194,0,0,0,314.059,1344.192Z" transform="translate(-310.905 -1337.119)" fill="#ed7d2b"/></g><g transform="translate(4.795 1.603)"><path d="M422.334,1347.614s.871-.3,1.282.222-.143.854-.608.77S421.9,1347.9,422.334,1347.614Z" transform="translate(-422.189 -1347.526)" fill="#ffb583"/></g><g transform="translate(0.257 2.662)"><path d="M313.383,1376.585a4.064,4.064,0,0,0,.316.648,4.871,4.871,0,0,0,3.094,2.587,6.408,6.408,0,0,0,3.8-.679,3.428,3.428,0,0,0,1.238-4,6.508,6.508,0,0,0-.947-2.233h0a5.359,5.359,0,0,1-3.833,3.821A5.622,5.622,0,0,1,313.383,1376.585Z" transform="translate(-313.383 -1372.905)" fill="#ea6c2d"/></g><g transform="translate(1.416)"><path d="M341.279,1311.318c.017-.523.578-.7,1.036-1.036a5.541,5.541,0,0,0,1-1.191,7.36,7.36,0,0,0-1.6.283C340.841,1309.629,341.279,1311.318,341.279,1311.318Z" transform="translate(-341.169 -1309.091)" fill="#a8d29f"/><path d="M341.279,1311.318a1.936,1.936,0,0,1,.525-1.544,11.5,11.5,0,0,1,1.513-.683,7.36,7.36,0,0,0-1.6.283C340.841,1309.629,341.279,1311.318,341.279,1311.318Z" transform="translate(-341.169 -1309.091)" fill="#82b378"/></g><g transform="translate(1.163 1.708)"><path d="M336.511,1351.381a3.4,3.4,0,0,0-1.394.706c.767-.574,1.991-.379,2.064-.737a6,6,0,0,1,.732-1.318C337.3,1350.552,336.983,1351.277,336.511,1351.381Z" transform="translate(-335.117 -1350.032)" fill="#ea6c2d"/></g><g transform="translate(0.882 3.946)"><path d="M328.369,1403.769c.022-.02.048-.046.079-.08C328.421,1403.715,328.395,1403.742,328.369,1403.769Z" transform="translate(-328.369 -1403.689)" fill="#95c38b"/></g><g transform="translate(0 1.809)"><path d="M310.4,1353.714h0a2.845,2.845,0,0,0-1.689-1.022,12.489,12.489,0,0,0-1.4-.236.073.073,0,0,0-.065.119l.11.135a.6.6,0,0,0,.449.221,3.449,3.449,0,0,1,2.353.81C310.228,1353.819,310.473,1353.819,310.4,1353.714Z" transform="translate(-307.231 -1352.456)" fill="#82b378"/></g></g><g transform="translate(9.542 9.98)"><g transform="translate(0.148 1.503)"><g transform="translate(0 1.236)"><rect width="0.627" height="7.394" transform="translate(0 0.1) rotate(-9.127)" fill="#b5453c"/></g><g transform="translate(0)"><path d="M539.656,1081.329l-.1,1.335.619-.1Z" transform="translate(-539.553 -1081.329)" fill="#efcbab"/></g></g><g transform="translate(5.511 2.132)"><g transform="translate(0 1.223)"><rect width="0.627" height="7.394" transform="translate(1.35 0) rotate(10.524)" fill="#b5453c"/></g><g transform="translate(1.351)"><path d="M701.049,1096.419l-.546,1.223.617.115Z" transform="translate(-700.503 -1096.419)" fill="#efcbab"/></g></g><g transform="translate(4.729)"><g transform="translate(0 1.222)"><rect width="0.627" height="7.394" transform="translate(1.351 0) rotate(10.525)" fill="#b5453c"/></g><g transform="translate(1.351)"><path d="M682.3,1045.3l-.546,1.222.617.115Z" transform="translate(-681.754 -1045.3)" fill="#efcbab"/></g></g><g transform="translate(0 5.82)"><g transform="translate(2.471)"><rect width="4.941" height="7.121" fill="#ed7d2b"/></g><rect width="4.941" height="7.121" fill="#f99746"/></g></g><g transform="translate(59.478 11.172)"><rect width="5.974" height="5.383" transform="translate(1.006 0) rotate(10.767)" fill="#ffc845"/></g><g transform="translate(59.908 11.613)"><rect width="5.974" height="0.775" transform="translate(0.145 0) rotate(10.767)" fill="#82b378"/></g><g transform="translate(21.031 10.35)"><g transform="translate(0 0)"><rect width="5.974" height="5.383" transform="translate(0 1.391) rotate(-13.462)" fill="#8edd65"/></g><g transform="translate(0 0)"><rect width="5.974" height="1.184" transform="translate(0 1.391) rotate(-13.461)" fill="#8edd65"/></g></g><g transform="translate(63.684 7.119)"><g transform="translate(0 0)"><rect width="5.974" height="5.383" transform="translate(0 1.031) rotate(-9.933)" fill="#699dee"/></g><g transform="translate(0 0)"><rect width="5.974" height="1.184" transform="translate(0 1.03) rotate(-9.933)" fill="#548ee2"/></g></g></g></g></g><g transform="translate(92.053 2.986)"><g transform="translate(8904.536 -172.163)"><rect width="46.823" height="27.488" fill="#f99746"/><rect width="46.823" height="23.097" fill="#283689"/><g transform="translate(15.791 27.488)"><path d="M1179.458,1157v.668H1165.71V1157a1.847,1.847,0,0,0,1.841-1.7c0-.048.005-.1.005-.144v-2.632h10.056v2.632c0,.048,0,.1.005.144a1.846,1.846,0,0,0,1.841,1.7Z" transform="translate(-1165.71 -1152.526)" fill="#f99746"/></g><g transform="translate(17.637 27.488)" opacity="0.7"><rect width="10.056" height="0.55" fill="#d86713"/></g><g transform="translate(15.791 30.264)" opacity="0.7"><path d="M1179.458,1225.262H1165.71a1.847,1.847,0,0,0,1.841-1.7h10.067a1.846,1.846,0,0,0,1.841,1.7Z" transform="translate(-1165.71 -1223.56)" fill="#d86713"/></g></g><g transform="translate(8905.144 -171.555)"><rect width="45.517" height="21.617" fill="#505aba"/></g><g transform="translate(8906.216 -170.558)"><g transform="translate(0 0)" opacity="0.1"><rect width="9.76" height="9.76" fill="#dde7fe"/></g><g transform="translate(0 10.834)" opacity="0.1"><rect width="9.76" height="8.891" fill="#dde7fe"/></g><g transform="translate(11.65 11.953)" opacity="0.1"><rect width="31.432" height="7.772" fill="#dde7fe"/></g><g transform="translate(11.65)"><rect width="20.091" height="10.995" fill="#ebf2f9"/></g><g transform="translate(11.65 2.751)"><path d="M1121.869,560.881v8h-19.136v-5.97h.715v.371h.587v-.215h.544v-.854h.271v-.4h.041v.4h.651v-.746h.064v.746h.43v-.01h0V562.1h0v-.09h0v-.149h0v-.1h0v-.149h0v-.1h0v-.149h0v-.1h0v-.149h0v-.131h0v-.149h0v-.1h.128v-.112h.021v.112h.95v-.112h.02v.112h.174v.78h.121v-.149h0v-.1h0v-.149h0v-.1h0v-.149h1.351l.031.012v.852h.842v1.119h.68v-2.068h.148v-.145h.026v.145h.537v-.145h.026v.145h.761v-.145h.027v.145h.479v-.145h.027v.145h.2v1.931h.752V562.4l.887,0V561.9h.179v-.1h.023v.1h.822v-.1h.023v.1h.165v1.006h1.056v.371h.587v-.215h.544v-.854h.272v-.4h.041v.4h.651v-.746h.064v.746h.43v-.01h0V562.1h0v-.09h0v-.149h0v-.1h0v-.149h0v-.1h0v-.149h0v-.1h0v-.149h0v-.131h0v-.149h0v-.1h.128v-.112h.021v.112h.95v-.112h.021v.112h.173v.78h.121v-.149h0v-.1h0v-.149h0v-.1h0v-.149h1.351Z" transform="translate(-1102.733 -560.632)" fill="#d5e5fb"/><g transform="translate(3.295 0.112)"><g transform="translate(4.854 0.041)"><rect width="1.7" height="0.327" fill="#e2eefd"/></g><g transform="translate(13.052)"><rect width="0.793" height="0.199" fill="#e2eefd"/><g transform="translate(0 0.306)"><rect width="0.793" height="0.199" fill="#e2eefd"/></g><g transform="translate(0 0.618)"><rect width="0.793" height="0.199" fill="#e2eefd"/></g><g transform="translate(0 0.935)"><rect width="0.793" height="0.199" fill="#e2eefd"/></g><g transform="translate(0 1.242)"><rect width="0.793" height="0.199" fill="#e2eefd"/></g></g><g transform="translate(13.052 1.578)"><rect width="0.793" height="0.199" fill="#e2eefd"/><g transform="translate(0 0.306)"><rect width="0.793" height="0.199" fill="#e2eefd"/></g><g transform="translate(0 0.618)"><rect width="0.793" height="0.199" fill="#e2eefd"/></g><g transform="translate(0 0.935)"><rect width="0.793" height="0.199" fill="#e2eefd"/></g><g transform="translate(0 1.241)"><rect width="0.793" height="0.199" fill="#e2eefd"/></g></g><rect width="0.85" height="0.199" fill="#e2eefd"/><g transform="translate(0 0.306)"><rect width="0.85" height="0.199" fill="#e2eefd"/></g><g transform="translate(0 0.618)"><rect width="0.85" height="0.199" fill="#e2eefd"/></g><g transform="translate(0 0.935)"><rect width="0.85" height="0.199" fill="#e2eefd"/></g><g transform="translate(0 1.242)"><rect width="0.85" height="0.199" fill="#e2eefd"/></g><g transform="translate(0 1.578)"><rect width="0.85" height="0.199" fill="#e2eefd"/><g transform="translate(0 0.306)"><rect width="0.85" height="0.199" fill="#e2eefd"/></g><g transform="translate(0 0.618)"><rect width="0.85" height="0.199" fill="#e2eefd"/></g><g transform="translate(0 0.935)"><rect width="0.85" height="0.199" fill="#e2eefd"/></g><g transform="translate(0 1.241)"><rect width="0.85" height="0.199" fill="#e2eefd"/></g></g><g transform="translate(1.439 0.13)"><rect width="0.966" height="0.199" fill="#e2eefd"/><g transform="translate(0 0.306)"><rect width="0.966" height="0.199" fill="#e2eefd"/></g><g transform="translate(0 0.618)"><rect width="0.966" height="0.199" fill="#e2eefd"/></g><g transform="translate(0 0.935)"><rect width="0.966" height="0.199" fill="#e2eefd"/></g><g transform="translate(0 1.242)"><rect width="0.966" height="0.199" fill="#e2eefd"/></g></g><g transform="translate(1.439 1.691)"><rect width="0.966" height="0.199" fill="#e2eefd"/><g transform="translate(0 0.306)"><rect width="0.966" height="0.199" fill="#e2eefd"/></g><g transform="translate(0 0.618)"><rect width="0.966" height="0.199" fill="#e2eefd"/></g><g transform="translate(0 0.935)"><rect width="0.966" height="0.199" fill="#e2eefd"/></g><g transform="translate(0 1.242)"><rect width="0.966" height="0.199" fill="#e2eefd"/></g></g></g></g><g transform="translate(28.614 1.959)"><g transform="translate(0.382)"><path d="M1546.671,540.569h-.075v-.006l.023-.2a.012.012,0,0,1,.013-.011h0a.021.021,0,0,1,.011.005.02.02,0,0,1,.006.013Z" transform="translate(-1546.596 -540.353)" fill="#9db0f4"/></g><g transform="translate(0.387)"><path d="M1546.715,540.524h0l.019-.16a.013.013,0,0,1,.013-.011h0l0,0a.02.02,0,0,1,.005.013v.115A.04.04,0,0,1,1546.715,540.524Z" transform="translate(-1546.712 -540.353)" fill="#afcdfb"/></g><g transform="translate(0.36 1.102)"><rect width="0.144" height="6.356" fill="#9db0f4"/></g><g transform="translate(0.36 1.102)"><rect width="0.066" height="6.356" fill="#aec3ff"/></g><g transform="translate(0.203 6.444)"><rect width="0.458" height="1.682" fill="#9db0f4"/></g><g transform="translate(0.203 6.444)"><rect width="0.273" height="1.682" fill="#aec3ff"/></g><g transform="translate(0.156 0.17)"><path d="M1541.337,544.845c0,.078-.118.142-.263.142h-.033c-.13-.009-.231-.069-.231-.141s.1-.132.231-.141h.033C1541.219,544.7,1541.337,544.767,1541.337,544.845Z" transform="translate(-1540.81 -544.703)" fill="#9db0f4"/></g><g transform="translate(0.156 0.171)"><path d="M1541.2,544.872c0,.063-.066.118-.16.141-.13-.009-.231-.069-.231-.141s.1-.132.231-.141C1541.135,544.754,1541.2,544.809,1541.2,544.872Z" transform="translate(-1540.81 -544.731)" fill="#aec3ff"/></g><g transform="translate(0.041 0.449)"><path d="M1538.485,552.627h-.459l-.162-.778h.757Z" transform="translate(-1537.865 -551.849)" fill="#aec3ff"/></g><g transform="translate(0 0.391)"><rect width="0.839" height="0.075" fill="#9db0f4"/></g><g transform="translate(0 0.391)"><rect width="0.527" height="0.075" fill="#aec3ff"/></g><g transform="translate(0.278 6.295)"><path d="M1543.938,701.576h.293l-.043-.13a.028.028,0,0,0-.027-.019h-.137a.036.036,0,0,0-.034.023Z" transform="translate(-1543.938 -701.427)" fill="#819dea"/></g><g transform="translate(0.095 0.487)"><path d="M1539.252,552.82h.646l-.126.7h-.371Z" transform="translate(-1539.252 -552.82)" fill="#c5d7ff"/></g><g transform="translate(0.054 0.305)"><path d="M1538.922,548.25h-.732l.06-.085h.615Z" transform="translate(-1538.19 -548.165)" fill="#9db0f4"/></g><g transform="translate(0.054 0.305)"><path d="M1538.742,548.25h-.552l.06-.085h.435Z" transform="translate(-1538.19 -548.165)" fill="#aec3ff"/></g></g><g transform="translate(11.65 8.961)"><path d="M1107.355,720.674h-4.622v-1.129l.045.022c.631.321.548.749,1.328.592a2.754,2.754,0,0,1,1.774,0c.35.223.606.134,1.041.133A.405.405,0,0,1,1107.355,720.674Z" transform="translate(-1102.733 -719.544)" fill="#a8d29f"/></g><g transform="translate(12.624 7.763)"><path d="M1132.249,689.923h-4.4l-.2-1.035h4.4Z" transform="translate(-1127.642 -688.888)" fill="#d36d1a"/><g transform="translate(0.075)"><path d="M1134.174,689.923h-4.4l-.2-1.035h4.4Z" transform="translate(-1129.566 -688.888)" fill="#f49540"/></g><g transform="translate(0.203 1.035)"><path d="M0,0H1.3a0,0,0,0,1,0,0V.127a0,0,0,0,1,0,0H.127A.127.127,0,0,1,0,0V0A0,0,0,0,1,0,0Z" fill="#d36d1a"/></g><g transform="translate(1.494 1.035)"><rect width="4" height="0.127" fill="#ffa255"/></g><g transform="translate(0.107 1.162)"><path d="M1130.733,718.618l-.075.3h0l-.223.878a.026.026,0,0,1-.025.019.036.036,0,0,1-.035-.043l.2-1.025.025-.127Z" transform="translate(-1130.373 -718.618)" fill="#ffa255"/></g><g transform="translate(0.307 1.162)"><path d="M1135.57,718.915c.007-.152-.084-.169-.084-.169l.025-.127h.135Z" transform="translate(-1135.485 -718.618)" fill="#d36d1a"/></g><g transform="translate(1.062 1.162)"><path d="M1155.179,718.618l-.075.3h0l-.223.878a.026.026,0,0,1-.025.019.036.036,0,0,1-.035-.043l.2-1.025.025-.127Z" transform="translate(-1154.819 -718.618)" fill="#ffa255"/></g><g transform="translate(1.262 1.162)"><path d="M1160.017,718.915c.007-.152-.084-.169-.084-.169l.025-.127h.135Z" transform="translate(-1159.933 -718.618)" fill="#d36d1a"/></g><g transform="translate(5.129 1.162)"><path d="M1258.875,718.618l.075.3h0l.223.878a.026.026,0,0,0,.025.019.036.036,0,0,0,.036-.043l-.2-1.025-.025-.127Z" transform="translate(-1258.875 -718.618)" fill="#ffa255"/></g><g transform="translate(5.129 1.162)"><path d="M1258.95,718.915c-.007-.152.084-.169.084-.169l-.025-.127h-.135Z" transform="translate(-1258.875 -718.618)" fill="#d36d1a"/></g><g transform="translate(4.173 1.162)"><path d="M1234.429,718.618l.075.3h0l.223.878a.026.026,0,0,0,.025.019.036.036,0,0,0,.036-.043l-.2-1.025-.025-.127Z" transform="translate(-1234.429 -718.618)" fill="#ffa255"/></g><g transform="translate(4.173 1.162)"><path d="M1234.5,718.915c-.007-.152.084-.169.084-.169l-.025-.127h-.135Z" transform="translate(-1234.429 -718.618)" fill="#d36d1a"/></g></g><g transform="translate(11.65 0.654)"><path d="M1105.479,509.157a.9.9,0,0,1-.393.117c-.638.04-.859.277-1.375.779a1.424,1.424,0,0,1-.978.337v-3.411c.09.064.182.13.277.193a1.452,1.452,0,0,0,1.148.325,1.827,1.827,0,0,1,.994-.014,1.186,1.186,0,0,1,.686.594A.819.819,0,0,1,1105.479,509.157Z" transform="translate(-1102.733 -506.979)" fill="#a8d29f"/></g><g transform="translate(19.604 1.341)"><path d="M1306.252,524.826a.286.286,0,1,1,.286.286A.286.286,0,0,1,1306.252,524.826Z" transform="translate(-1306.252 -524.54)" fill="#f8fcff"/></g><g transform="translate(24.309 0.694)"><path d="M1426.636,508.66a.9.9,0,0,1,.842-.355,1.619,1.619,0,0,1,1.781-.089,4.111,4.111,0,0,1,1.7.124,1.624,1.624,0,0,1,.642.364Z" transform="translate(-1426.636 -507.982)" fill="#f8fcff"/></g><g transform="translate(27.275 1.954)" opacity="0.5"><path d="M1502.543,540.671a.591.591,0,0,1,.551-.232,1.059,1.059,0,0,1,1.165-.058,2.691,2.691,0,0,1,1.112.081,1.061,1.061,0,0,1,.42.238Z" transform="translate(-1502.543 -540.227)" fill="#f8fcff"/></g><g transform="translate(15.148 1.773)" opacity="0.5"><path d="M1192.224,536.041a.591.591,0,0,1,.551-.232,1.058,1.058,0,0,1,1.165-.058,2.688,2.688,0,0,1,1.112.081,1.057,1.057,0,0,1,.42.238Z" transform="translate(-1192.224 -535.597)" fill="#f8fcff"/></g><g transform="translate(11.65 10.085)"><rect width="20.091" height="0.911" fill="#9db0f4"/></g><g transform="translate(19.498 0.781)"><g transform="translate(4.793 8.055)"><path d="M1426.21,717.306a.855.855,0,0,1,.17-.7.772.772,0,0,1,.724-.254s.063.1-.062.175-.564-.077-.674.683C1426.367,717.206,1426.315,717.363,1426.21,717.306Z" transform="translate(-1426.192 -716.336)" fill="#f99746"/></g><g transform="translate(1.404 3.724)"><path d="M1339.467,605.658a.162.162,0,1,1,.162.162A.162.162,0,0,1,1339.467,605.658Z" transform="translate(-1339.467 -605.496)" fill="#ed7d2b"/></g><g transform="translate(5.324 8.586)"><path d="M1439.773,730.141a.227.227,0,1,1,.227.227A.227.227,0,0,1,1439.773,730.141Z" transform="translate(-1439.773 -729.914)" fill="#9db0f4"/></g><g transform="translate(0.288 8.292)"><path d="M1310.923,722.741a.348.348,0,1,1,.348.348A.348.348,0,0,1,1310.923,722.741Z" transform="translate(-1310.923 -722.393)" fill="#9db0f4"/></g><g transform="translate(0.628 4.036)"><g transform="translate(0 0)"><rect width="4.063" height="0.139" transform="translate(0 4.025) rotate(-82.191)" fill="#131375"/></g></g><g transform="translate(0.841 3.865)"><path d="M1325.066,609.413v-.155l.708-.155.047.131Z" transform="translate(-1325.066 -609.103)" fill="#ed7d2b"/></g><g transform="translate(0 8.005)"><path d="M1304.191,716.338a.647.647,0,1,1,.647-.647A.648.648,0,0,1,1304.191,716.338Zm0-1.164a.517.517,0,1,0,.516.517A.517.517,0,0,0,1304.191,715.174Z" transform="translate(-1303.543 -715.043)" fill="#060633"/></g><g transform="translate(5.078 8.34)"><path d="M1433.952,724.565a.473.473,0,1,1,.473-.473A.474.474,0,0,1,1433.952,724.565Zm0-.842a.369.369,0,1,0,.369.369A.369.369,0,0,0,1433.952,723.723Z" transform="translate(-1433.479 -723.619)" fill="#060633"/></g><g transform="translate(1.534 8.826)"><path d="M.129,0H3.293a.129.129,0,0,1,.129.129v0a.129.129,0,0,1-.129.129H.129A.129.129,0,0,1,0,.129v0A.129.129,0,0,1,.129,0Z" fill="#131375"/></g><g transform="translate(4.838 8.761)"><path d="M1427.394,734.721a.052.052,0,0,1-.016-.1l.661-.221a.052.052,0,1,1,.033.1l-.661.221Z" transform="translate(-1427.342 -734.396)" fill="#131375"/></g><g transform="translate(0.827 6.73)"><path d="M1324.7,682.74l1.108,1.772h.281l-1.33-2.1Z" transform="translate(-1324.695 -682.41)" fill="#131375"/></g><g transform="translate(0.071 8.053)"><path d="M1306.168,716.3l-.1-.031-.106.348a.256.256,0,0,1-.266.18l-.336-.028-.009.106.337.029a.45.45,0,0,1,.341.206l.179.279.089-.057-.172-.27a.511.511,0,0,1-.058-.424Z" transform="translate(-1305.349 -716.271)" fill="#060633"/></g><g transform="translate(5.171 8.431)"><path d="M1436.4,725.956l-.066-.02-.069.226a.166.166,0,0,1-.173.117l-.219-.018-.006.069.219.018a.293.293,0,0,1,.222.134l.116.182.058-.037-.112-.175a.333.333,0,0,1-.038-.276Z" transform="translate(-1435.865 -725.936)" fill="#060633"/></g><g transform="translate(5.49 8.753)"><path d="M1444.013,734.233a.052.052,0,1,1,.052.052A.052.052,0,0,1,1444.013,734.233Z" transform="translate(-1444.013 -734.181)" fill="#f99746"/></g><g transform="translate(0.584 8.588)"><path d="M1318.489,730.011a.052.052,0,1,1,.052.052A.052.052,0,0,1,1318.489,730.011Z" transform="translate(-1318.489 -729.959)" fill="#f99746"/></g><g transform="translate(0.238 7.847)"><path d="M1309.633,711.127a.855.855,0,0,1,.721-.076.771.771,0,0,1,.482.6s-.071.093-.186,0-.116-.557-.87-.406C1309.78,711.241,1309.614,711.244,1309.633,711.127Z" transform="translate(-1309.631 -711.005)" fill="#f99746"/></g><g transform="translate(2.6 0.017)"><path d="M1370.6,510.64a4.659,4.659,0,0,0-.524,1.071,1.119,1.119,0,0,0,.167.492l.53-.44.264-.473Z" transform="translate(-1370.079 -510.64)" fill="#829ce8"/></g><g transform="translate(2.876 0.767)"><path d="M1377.8,530.32a.509.509,0,0,1-.493.262.9.9,0,0,1-.116-.253c0-.014-.005-.027-.008-.04-.027-.127-.045-.2-.045-.2h0c.012-.008.413-.273.415-.258A.788.788,0,0,0,1377.8,530.32Z" transform="translate(-1377.139 -529.834)" fill="#ed975d"/></g><g transform="translate(2.681 0.244)"><path d="M1372.207,517.264s.486.163.583-.142.225-.488-.082-.605-.4-.02-.461.074S1372.083,517.213,1372.207,517.264Z" transform="translate(-1372.15 -516.463)" fill="#ffb27d"/></g><g transform="translate(2.187 8.395)"><path d="M1359.505,725.457h.8l.017-.005c.053-.027.037-.232.03-.295l0-.019s-.282-.225-.321-.053l0,.016h0c-.049.161-.268.235-.394.255A.138.138,0,0,0,1359.505,725.457Z" transform="translate(-1359.505 -725.021)" fill="#a9453d"/></g><g transform="translate(3.755 8.395)"><path d="M1399.639,725.457h.8l.017-.005c.053-.027.037-.232.03-.295,0-.012,0-.019,0-.019s-.282-.225-.32-.053l0,.016h0c-.049.161-.268.235-.394.255A.138.138,0,0,0,1399.639,725.457Z" transform="translate(-1399.639 -725.021)" fill="#a9453d"/></g><g transform="translate(2.349 4.137)"><path d="M1363.638,616.134s.043.534.093,1.176c.068.872.151,1.942.159,2.145.014.352.109.944.109.944s.057.093.324.037a7.449,7.449,0,0,0,.346-1.643l0-.042c.064-.866.162-2.691.162-2.691Z" transform="translate(-1363.638 -616.06)" fill="#f99746"/></g><g transform="translate(2.349 4.137)"><path d="M1363.638,616.134s.043.534.093,1.176l.937,1.483,0-.042c.064-.866.162-2.691.162-2.691Z" transform="translate(-1363.638 -616.06)" fill="#ed7d2b"/></g><g transform="translate(2.544 3.925)"><path d="M1368.639,611a17.167,17.167,0,0,0,1.033,2.921c.507.909.688,1.313.688,1.313s.311.084.337,0a20.89,20.89,0,0,0-.471-2.668,6.273,6.273,0,0,1-.167-1.32,1.831,1.831,0,0,0-.189-.6Z" transform="translate(-1368.639 -610.653)" fill="#f99746"/></g><g transform="translate(2.303 1.321)"><path d="M1362.542,547.747a3.361,3.361,0,0,0,2.041.293c0-.036-.406-2.188-.546-2.815a2.7,2.7,0,0,0-.47-1.213c-.021-.015-.15.051-.268.112a.493.493,0,0,1-.324.046.759.759,0,0,0-.084.147,11.281,11.281,0,0,0-.412,1.442c0,.011,0,.022,0,.034,0,.055,0,.11,0,.164S1362.531,547.741,1362.542,547.747Z" transform="translate(-1362.474 -544.01)" fill="#9db0f4"/></g><g transform="translate(2.301 2.462)"><path d="M1362.463,574.973a1.976,1.976,0,0,0,.864-1.776l-.9.806c0,.062,0,.124,0,.185,0,.046,0,.092,0,.136v.006c0,.017,0,.035,0,.051C1362.431,574.457,1362.462,574.9,1362.463,574.973Z" transform="translate(-1362.43 -573.197)" fill="#7a96e5"/></g><g transform="translate(1.343 1.651)"><path d="M1337.937,554.665c-.048-.083-.01-.118-.01-.118s.792-.582.855-.641a10.342,10.342,0,0,0,.373-1.025s.109-.391.337-.428a.415.415,0,0,1,.416.187.42.42,0,0,1,.014.472,11.177,11.177,0,0,1-.746,1.084,4.744,4.744,0,0,1-1.126.536A.143.143,0,0,1,1337.937,554.665Z" transform="translate(-1337.913 -552.447)" fill="#ffb27d"/></g><g transform="translate(2.551)"><path d="M1369.577,511.194c.006,0,.11.048.35-.337a.352.352,0,0,0,.009-.323.955.955,0,0,0-.531-.309c-.214-.062-.278.056-.341.175a.672.672,0,0,1-.232.217c.179.123.419-.007.5.025s.093.158.1.2.008.074.11.048.032.144.013.176C1369.546,511.065,1369.524,511.153,1369.577,511.194Z" transform="translate(-1368.832 -510.208)" fill="#233862"/></g><g transform="translate(2.803 0.017)"><path d="M1375.6,510.64a2.387,2.387,0,0,1,.277.654c.008.2-.6.81-.6.81s.52.136.734,0a4.62,4.62,0,0,0,.495-.815A.933.933,0,0,0,1375.6,510.64Z" transform="translate(-1375.276 -510.64)" fill="#9db0f4"/></g><g transform="translate(2.651 4.192)"><path d="M1371.383,617.473a3.23,3.23,0,0,0,.766.034l-.007.473-.377.144-.383-.213Z" transform="translate(-1371.383 -617.473)" fill="#7a96e5"/></g><g transform="translate(0.869 3.75)"><path d="M1326.254,606.165a1.033,1.033,0,0,0-.364.072c-.061.057-.18.165-.09.184l.218-.048c.111.026.151.087.222.049l.148-.079Z" transform="translate(-1325.767 -606.165)" fill="#ffb27d"/></g><g transform="translate(0.628 3.914)"><path d="M1319.624,610.517a.162.162,0,1,1,.162.162A.162.162,0,0,1,1319.624,610.517Z" transform="translate(-1319.624 -610.355)" fill="#f99746"/></g><g transform="translate(3.535 1.473)"><path d="M1395.481,549.358a.359.359,0,0,1-.009.062c-.064.243-.886.427-.978.339a.356.356,0,0,1-.053-.07,4.259,4.259,0,0,1-.414-1.7,2.36,2.36,0,0,1,.4-.085l.032,0h0a.373.373,0,0,1,.144.013c.153.057.275.456.275.456a1.056,1.056,0,0,1,.238,0l.041.007h0a.241.241,0,0,1,.089.035A2.065,2.065,0,0,1,1395.481,549.358Z" transform="translate(-1394 -547.895)" fill="#f99746"/></g><g transform="translate(2.803 1.348)"><path d="M1376.138,544.891a.873.873,0,0,0-.754-.173l-.108.113a.9.9,0,0,1,.735.135Z" transform="translate(-1375.276 -544.697)" fill="#f99746"/></g><g transform="translate(2.751 2.826)"><path d="M1374.035,582.511s.282.5,1.052.252l.079.188s-.915.26-1.224-.244Z" transform="translate(-1373.941 -582.511)" fill="#f99746"/></g><g transform="translate(1.587 1.579)"><path d="M1345.5,550.62a.263.263,0,0,0-.268.16,5.65,5.65,0,0,1-.426,1.187,3.651,3.651,0,0,1-.666.654s.06.194.189.245a1.31,1.31,0,0,0,1.037-.4c.117-.133.817-1.272.673-1.507A1.015,1.015,0,0,0,1345.5,550.62Z" transform="translate(-1344.144 -550.619)" fill="#9db0f4"/></g><g transform="translate(3.902 1.474)"><path d="M1403.473,547.928a.263.263,0,0,0-.064.235,1.247,1.247,0,0,0,.084.316l-.021.01a1.276,1.276,0,0,1-.085-.322.3.3,0,0,1,.054-.236Z" transform="translate(-1403.383 -547.928)" fill="#ed7d2b"/></g><g transform="translate(4.553 1.939)"><path d="M1420.281,560.828l-.021.007a5.5,5.5,0,0,1-.213-.865.183.183,0,0,1,.1-.145l.041.007a.162.162,0,0,0-.114.141A5.783,5.783,0,0,0,1420.281,560.828Z" transform="translate(-1420.046 -559.825)" fill="#ed7d2b"/></g><g transform="translate(3.807 2.512)"><path d="M1400.96,574.594l.194.551a.859.859,0,0,0,.434-.1l-.179-.566A.8.8,0,0,1,1400.96,574.594Z" transform="translate(-1400.96 -574.474)" fill="#ed7d2b"/></g><g transform="translate(3.976 2.936)"><path d="M1406.313,585.335a.316.316,0,0,1-.009.062c-.064.243-.886.427-.978.339a.349.349,0,0,1-.053-.07A2.526,2.526,0,0,0,1406.313,585.335Z" transform="translate(-1405.273 -585.335)" fill="#ed7d2b"/></g><g transform="translate(3.807 2.512)"><path d="M1400.96,574.594l.057.162.257.018.185-.141-.05-.158A3.923,3.923,0,0,0,1400.96,574.594Z" transform="translate(-1400.96 -574.474)" fill="#ef873a"/></g><g transform="translate(4.082 2.746)"><path d="M1408.008,580.486a.016.016,0,1,1,.032,0,.016.016,0,1,1-.032,0Z" transform="translate(-1408.008 -580.47)" fill="#131375"/></g></g><g transform="translate(13.084 12.914)"><rect width="24.098" height="0.606" fill="#9db0f4"/></g><g transform="translate(13.084 14.137)"><rect width="24.098" height="0.606" fill="#9db0f4"/></g><g transform="translate(23.82 15.36)"><rect width="13.362" height="0.606" fill="#9db0f4"/></g><g transform="translate(21.088 16.583)"><rect width="10.363" height="0.606" fill="#9db0f4"/></g><g transform="translate(23.82 17.806)"><rect width="13.362" height="0.606" fill="#9db0f4"/></g><g transform="translate(0.702 8.002)"><rect width="6.382" height="0.303" fill="#9db0f4"/></g><g transform="translate(7.699 8.002)"><rect width="0.702" height="0.702" fill="#9db0f4"/></g><g transform="translate(3.089 8.002)"><rect width="2.928" height="0.303" fill="#f77d48"/></g><g transform="translate(0.702 6.341)"><rect width="6.382" height="0.303" fill="#9db0f4"/></g><g transform="translate(7.699 6.341)"><rect width="0.702" height="0.702" fill="#9db0f4"/></g><g transform="translate(1.537 6.341)"><rect width="2.039" height="0.303" fill="#f77d48"/></g><g transform="translate(0.702 4.68)"><rect width="6.382" height="0.303" fill="#9db0f4"/></g><g transform="translate(7.699 4.68)"><rect width="0.702" height="0.702" fill="#7a96e5"/></g><g transform="translate(3.86 4.68)"><rect width="2.039" height="0.303" fill="#7a96e5"/></g><g transform="translate(0.702 3.019)"><rect width="6.382" height="0.303" fill="#9db0f4"/></g><g transform="translate(7.699 3.019)"><rect width="0.702" height="0.702" fill="#7a96e5"/></g><g transform="translate(1.537 3.019)"><rect width="3.102" height="0.303" fill="#7a96e5"/></g><g transform="translate(0.702 1.359)"><rect width="6.382" height="0.303" fill="#9db0f4"/></g><g transform="translate(7.699 1.359)"><rect width="0.702" height="0.702" fill="#f77d48"/></g><g transform="translate(3.713 1.359)"><rect width="2.72" height="0.303" fill="#f77d48"/></g><g transform="translate(2.651 11.7)"><g transform="translate(0.926 0.078)"><rect width="0.62" height="0.62" fill="#9db0f4"/></g><g transform="translate(2.033 0.078)"><rect width="0.62" height="0.62" fill="#9db0f4"/></g><g transform="translate(3.081 0.157)"><rect width="3.232" height="0.23" fill="#9db0f4"/></g><path d="M872.455,789.631l.508.387-.508.3Z" transform="translate(-872.455 -789.631)" fill="#9db0f4"/></g><g transform="translate(3.577 12.964)"><rect width="0.62" height="0.62" fill="#7a96e5"/></g><g transform="translate(4.684 12.964)"><rect width="0.62" height="0.62" fill="#9db0f4"/></g><g transform="translate(5.732 13.044)"><rect width="3.232" height="0.23" fill="#9db0f4"/></g><g transform="translate(2.651 12.886)"><path d="M872.455,819.978l.508.387-.508.3Z" transform="translate(-872.455 -819.978)" fill="#9db0f4"/></g><g transform="translate(3.577 14.15)"><rect width="0.62" height="0.62" fill="#f77d48"/></g><g transform="translate(4.684 14.15)"><rect width="0.62" height="0.62" fill="#9db0f4"/></g><g transform="translate(5.732 14.23)"><rect width="3.232" height="0.23" fill="#9db0f4"/></g><g transform="translate(2.651 14.072)"><path d="M872.455,850.325l.508.387-.508.3Z" transform="translate(-872.455 -850.325)" fill="#9db0f4"/></g><g transform="translate(3.577 15.336)"><rect width="0.62" height="0.62" fill="#f77d48"/></g><g transform="translate(4.684 15.336)"><rect width="0.62" height="0.62" fill="#9db0f4"/></g><g transform="translate(5.732 15.416)"><rect width="3.232" height="0.23" fill="#9db0f4"/></g><g transform="translate(2.651 15.258)"><path d="M872.455,880.672l.508.387-.508.3Z" transform="translate(-872.455 -880.672)" fill="#9db0f4"/></g><g transform="translate(3.577 16.522)"><rect width="0.62" height="0.62" fill="#7a96e5"/></g><g transform="translate(4.684 16.522)"><rect width="0.62" height="0.62" fill="#9db0f4"/></g><g transform="translate(5.732 16.602)"><rect width="3.232" height="0.23" fill="#9db0f4"/></g><g transform="translate(2.651 16.444)"><path d="M872.455,911.019l.508.387-.508.3Z" transform="translate(-872.455 -911.019)" fill="#9db0f4"/></g><g transform="translate(3.577 17.708)"><rect width="0.62" height="0.62" fill="#7a96e5"/></g><g transform="translate(4.684 17.708)"><rect width="0.62" height="0.62" fill="#9db0f4"/></g><g transform="translate(5.732 17.788)"><rect width="3.232" height="0.23" fill="#9db0f4"/></g><g transform="translate(2.651 17.63)"><path d="M872.455,941.366l.508.387-.508.3Z" transform="translate(-872.455 -941.366)" fill="#9db0f4"/></g><g transform="translate(0.606 11.831)" opacity="0.5"><path d="M820.11,793.189a.562.562,0,0,1,.385-.211.489.489,0,0,1,.366.211.441.441,0,0,1-.366.211A.465.465,0,0,1,820.11,793.189Z" transform="translate(-820.11 -792.978)" fill="#dde7fe"/><g transform="translate(0.229 0.065)"><path d="M825.977,794.787a.146.146,0,1,1,.146.146A.146.146,0,0,1,825.977,794.787Z" transform="translate(-825.977 -794.641)" fill="#15156d"/></g><g transform="translate(0.286 0.122)"><path d="M827.434,796.186a.089.089,0,1,1,.089.089A.089.089,0,0,1,827.434,796.186Z" transform="translate(-827.434 -796.097)" fill="#dde7fe"/></g></g><g transform="translate(0.606 13.017)" opacity="0.5"><path d="M820.11,823.535a.562.562,0,0,1,.385-.211.489.489,0,0,1,.366.211.441.441,0,0,1-.366.211A.465.465,0,0,1,820.11,823.535Z" transform="translate(-820.11 -823.324)" fill="#dde7fe"/><g transform="translate(0.229 0.065)"><path d="M825.977,825.132a.146.146,0,1,1,.146.146A.146.146,0,0,1,825.977,825.132Z" transform="translate(-825.977 -824.986)" fill="#15156d"/></g><g transform="translate(0.286 0.122)"><path d="M827.434,826.533a.089.089,0,1,1,.089.089A.089.089,0,0,1,827.434,826.533Z" transform="translate(-827.434 -826.444)" fill="#dde7fe"/></g></g><g transform="translate(0.606 14.203)" opacity="0.5"><path d="M820.11,853.882a.562.562,0,0,1,.385-.211.489.489,0,0,1,.366.211.441.441,0,0,1-.366.211A.465.465,0,0,1,820.11,853.882Z" transform="translate(-820.11 -853.671)" fill="#dde7fe"/><g transform="translate(0.229 0.065)"><path d="M825.977,855.48a.146.146,0,1,1,.146.146A.146.146,0,0,1,825.977,855.48Z" transform="translate(-825.977 -855.334)" fill="#15156d"/></g><g transform="translate(0.286 0.122)"><path d="M827.434,856.88a.089.089,0,1,1,.089.089A.089.089,0,0,1,827.434,856.88Z" transform="translate(-827.434 -856.791)" fill="#dde7fe"/></g></g><g transform="translate(0.606 15.389)" opacity="0.5"><path d="M820.11,884.229a.562.562,0,0,1,.385-.211.489.489,0,0,1,.366.211.441.441,0,0,1-.366.211A.465.465,0,0,1,820.11,884.229Z" transform="translate(-820.11 -884.018)" fill="#dde7fe"/><g transform="translate(0.229 0.065)"><path d="M825.977,885.828a.146.146,0,1,1,.146.146A.146.146,0,0,1,825.977,885.828Z" transform="translate(-825.977 -885.682)" fill="#15156d"/></g><g transform="translate(0.286 0.122)"><path d="M827.434,887.227a.089.089,0,1,1,.089.089A.089.089,0,0,1,827.434,887.227Z" transform="translate(-827.434 -887.138)" fill="#dde7fe"/></g></g><g transform="translate(0.606 16.575)" opacity="0.5"><path d="M820.11,914.576a.562.562,0,0,1,.385-.211.489.489,0,0,1,.366.211.441.441,0,0,1-.366.211A.465.465,0,0,1,820.11,914.576Z" transform="translate(-820.11 -914.365)" fill="#dde7fe"/><g transform="translate(0.229 0.065)"><path d="M825.977,916.174a.146.146,0,1,1,.146.146A.146.146,0,0,1,825.977,916.174Z" transform="translate(-825.977 -916.028)" fill="#15156d"/></g><g transform="translate(0.286 0.122)"><path d="M827.434,917.573a.089.089,0,1,1,.089.089A.089.089,0,0,1,827.434,917.573Z" transform="translate(-827.434 -917.484)" fill="#dde7fe"/></g></g><g transform="translate(0.606 17.761)" opacity="0.5"><path d="M820.11,944.923a.562.562,0,0,1,.385-.211.489.489,0,0,1,.366.211.441.441,0,0,1-.366.211A.465.465,0,0,1,820.11,944.923Z" transform="translate(-820.11 -944.712)" fill="#dde7fe"/><g transform="translate(0.229 0.065)"><path d="M825.977,946.521a.146.146,0,1,1,.146.146A.146.146,0,0,1,825.977,946.521Z" transform="translate(-825.977 -946.375)" fill="#15156d"/></g><g transform="translate(0.286 0.122)"><path d="M827.434,947.921a.089.089,0,1,1,.089.089A.089.089,0,0,1,827.434,947.921Z" transform="translate(-827.434 -947.832)" fill="#dde7fe"/></g></g><g transform="translate(28.001 16.583)"><rect width="9.182" height="0.606" fill="#f99746"/></g><g transform="translate(29.623 15.36)"><rect width="5.335" height="0.606" fill="#f99746"/></g><g transform="translate(29.034 12.914)"><rect width="6.174" height="0.606" fill="#f99746"/></g><g transform="translate(30.911 14.137)"><rect width="5.335" height="0.606" fill="#7a96e5"/></g><g transform="translate(13.424 2.112)"><g transform="translate(0.163 0.132)"><path d="M1154.977,549.362a3.921,3.921,0,0,0-2.679-1.669v-.036a3.96,3.96,0,0,1,2.707,1.683Z" transform="translate(-1152.298 -547.657)" fill="#15156d"/></g><path d="M1148.126,544.438a.15.15,0,1,1,.15.15A.15.15,0,0,1,1148.126,544.438Z" transform="translate(-1148.126 -544.288)" fill="#f77d48"/><g transform="translate(2.707 1.661)"><path d="M1217.394,586.93a.15.15,0,1,1,.15.15A.15.15,0,0,1,1217.394,586.93Z" transform="translate(-1217.394 -586.78)" fill="#f77d48"/></g></g><g transform="translate(16.472 0.733)"><g transform="translate(0.145 0.141)"><path d="M1229.838,513.667l-.028-.024a3.965,3.965,0,0,1,3.008-1.053v.036A3.924,3.924,0,0,0,1229.838,513.667Z" transform="translate(-1229.81 -512.59)" fill="#15156d"/></g><g transform="translate(0 1.067)"><path d="M1226.167,536.556a.15.15,0,1,1,.211-.023A.15.15,0,0,1,1226.167,536.556Z" transform="translate(-1226.111 -536.29)" fill="#f77d48"/></g><g transform="translate(2.991)"><path d="M1302.708,509.26a.15.15,0,1,1,.211-.023A.15.15,0,0,1,1302.708,509.26Z" transform="translate(-1302.652 -508.994)" fill="#f77d48"/></g></g><g transform="translate(25.994 0.698)"><g transform="translate(0.174 0.152)"><path d="M1474.244,513.078l-.033-.028a4.358,4.358,0,0,1,3.55-1.054l0,.043A4.315,4.315,0,0,0,1474.244,513.078Z" transform="translate(-1474.211 -511.981)" fill="#15156d"/></g><g transform="translate(0 1.071)"><path d="M1469.845,535.8a.17.17,0,1,1,.252-.014A.178.178,0,0,1,1469.845,535.8Z" transform="translate(-1469.771 -535.49)" fill="#f77d48"/></g><g transform="translate(3.528)"><path d="M1560.118,508.4a.17.17,0,1,1,.252-.014A.179.179,0,0,1,1560.118,508.4Z" transform="translate(-1560.043 -508.092)" fill="#f77d48"/></g></g><g transform="translate(21.94 2.508)"><rect width="2.518" height="0.036" fill="#15156d"/></g><g transform="translate(21.791 2.377)"><path d="M1362.2,551.2a.15.15,0,1,1,.15.15A.15.15,0,0,1,1362.2,551.2Z" transform="translate(-1362.204 -551.05)" fill="#fa7267"/></g><g transform="translate(24.309 2.377)"><path d="M1426.636,551.2a.15.15,0,1,1,.15.15A.15.15,0,0,1,1426.636,551.2Z" transform="translate(-1426.636 -551.05)" fill="#fa7267"/></g><g transform="translate(26.879 12.108)"><g transform="translate(0 0)"><rect width="0.363" height="0.363" transform="translate(0.257 0) rotate(44.996)" fill="#f77d48"/></g></g><g transform="translate(12.323 5.331)"><path d="M1128.134,628.391a19.71,19.71,0,0,1-4.172-.528,32.366,32.366,0,0,1-4.029-1.191l.013-.034a32.358,32.358,0,0,0,4.024,1.19c2.049.461,4.9.854,6.833.115a10.7,10.7,0,0,1,5.388-.414,13.2,13.2,0,0,1,2.565.663l-.013.034a13.175,13.175,0,0,0-2.558-.662,10.67,10.67,0,0,0-5.369.413A7.636,7.636,0,0,1,1128.134,628.391Z" transform="translate(-1119.933 -626.639)" fill="#15156d"/></g><g transform="translate(23.459 6.369)"><path d="M1404.9,653.361a.15.15,0,1,1,.15.15A.15.15,0,0,1,1404.9,653.361Z" transform="translate(-1404.902 -653.211)" fill="#17152b"/></g><g transform="translate(19.304 6.896)"><path d="M1298.586,666.838a.15.15,0,1,1,.15.15A.15.15,0,0,1,1298.586,666.838Z" transform="translate(-1298.586 -666.688)" fill="#17152b"/></g><g transform="translate(19.126 10.322)"><g transform="translate(0.142 0.133)"><path d="M1298.651,758.038a2.377,2.377,0,0,1-1-.212l.015-.033a2.693,2.693,0,0,0,2.083-.013l.016.033A2.884,2.884,0,0,1,1298.651,758.038Z" transform="translate(-1297.652 -757.78)" fill="#15156d"/></g><g transform="translate(2.099)"><path d="M1347.955,754.633a.15.15,0,1,1,.022-.211A.15.15,0,0,1,1347.955,754.633Z" transform="translate(-1347.711 -754.367)" fill="#f77d48"/></g><g transform="translate(0 0.013)"><path d="M1294.257,754.97a.15.15,0,1,1,.022-.211A.15.15,0,0,1,1294.257,754.97Z" transform="translate(-1294.013 -754.703)" fill="#f77d48"/></g></g><g transform="translate(24.077 10.322)"><g transform="translate(0.142 0.133)"><path d="M1425.357,758.038a2.378,2.378,0,0,1-1-.212l.015-.033a2.693,2.693,0,0,0,2.083-.013l.016.033A2.885,2.885,0,0,1,1425.357,758.038Z" transform="translate(-1424.358 -757.78)" fill="#15156d"/></g><g transform="translate(2.099)"><path d="M1474.661,754.633a.15.15,0,1,1,.022-.211A.15.15,0,0,1,1474.661,754.633Z" transform="translate(-1474.417 -754.367)" fill="#f77d48"/></g><g transform="translate(0 0.013)"><path d="M1420.962,754.97a.15.15,0,1,1,.022-.211A.15.15,0,0,1,1420.962,754.97Z" transform="translate(-1420.719 -754.703)" fill="#f77d48"/></g></g><g transform="translate(29.893 5.192)" opacity="0.3"><path d="M1571.384,623.088v5.13l-1.834-.238s-.164-1.081.616-1.425C1570.891,626.237,1570.4,623.454,1571.384,623.088Z" transform="translate(-1569.536 -623.088)" fill="#9db0f4"/></g><g transform="translate(30.901 6.751)"><path d="M1595.316,663.14a.15.15,0,1,1,.15.15A.15.15,0,0,1,1595.316,663.14Z" transform="translate(-1595.316 -662.99)" fill="#f77d48"/></g><g transform="translate(12.216 5.198)"><path d="M1117.213,623.389a.15.15,0,1,1,.15.15A.15.15,0,0,1,1117.213,623.389Z" transform="translate(-1117.213 -623.239)" fill="#f77d48"/></g></g><g transform="translate(8939.624 -170.548)" opacity="0.1"><rect width="9.674" height="10.985" fill="#dde7fe"/></g><g transform="translate(8940.466 -169.887)"><rect width="4.722" height="0.135" fill="#9db0f4"/><g transform="translate(0 0.335)"><rect width="3.654" height="0.135" fill="#9db0f4"/></g><g transform="translate(7.209 0.078)"><rect width="0.256" height="0.256" fill="#9db0f4"/></g><g transform="translate(0 1.49)"><rect width="4.722" height="0.135" fill="#9db0f4"/><g transform="translate(0 0.335)"><rect width="3.654" height="0.135" fill="#9db0f4"/></g></g><g transform="translate(7.209 1.568)"><rect width="0.256" height="0.256" fill="#9db0f4"/></g><g transform="translate(0 2.98)"><rect width="4.722" height="0.135" fill="#9db0f4"/><g transform="translate(0 0.335)"><rect width="3.654" height="0.135" fill="#9db0f4"/></g></g><g transform="translate(7.209 3.059)"><rect width="0.256" height="0.256" fill="#9db0f4"/></g><g transform="translate(0 4.47)"><rect width="4.722" height="0.135" fill="#9db0f4"/><g transform="translate(0 0.335)"><rect width="3.654" height="0.135" fill="#9db0f4"/></g></g><g transform="translate(7.209 4.549)"><rect width="0.256" height="0.256" fill="#9db0f4"/></g><g transform="translate(0 5.961)"><rect width="4.722" height="0.135" fill="#9db0f4"/><g transform="translate(0 0.335)"><rect width="3.654" height="0.135" fill="#9db0f4"/></g></g><g transform="translate(7.209 6.039)"><rect width="0.256" height="0.256" fill="#9db0f4"/></g><g transform="translate(7.209 7.39)"><rect width="0.256" height="0.256" fill="#9db0f4"/></g><g transform="translate(0 7.451)"><rect width="4.722" height="0.135" fill="#9db0f4"/><g transform="translate(0 0.335)"><rect width="3.654" height="0.135" fill="#9db0f4"/></g></g><g transform="translate(0 8.941)"><rect width="4.722" height="0.135" fill="#9db0f4"/><g transform="translate(0 0.335)"><rect width="3.654" height="0.135" fill="#9db0f4"/></g></g><g transform="translate(7.209 9.019)"><rect width="0.256" height="0.256" fill="#9db0f4"/></g></g></g></g></svg>