<svg xmlns="http://www.w3.org/2000/svg" xmlns:xlink="http://www.w3.org/1999/xlink" width="57" height="57" viewBox="0 0 57 57"><defs><linearGradient id="a" x1="0.5" x2="0.5" y2="1" gradientUnits="objectBoundingBox"><stop offset="0" stop-color="#9962cb"/><stop offset="0.382" stop-color="#fb53ba"/><stop offset="0.673" stop-color="#ff7f41"/><stop offset="1" stop-color="#ffc845"/></linearGradient></defs><path d="M0,4.573A4.579,4.579,0,0,1,4.573,0H15.041a4.579,4.579,0,0,1,4.573,4.573,32.419,32.419,0,0,0,1.626,10.181,4.608,4.608,0,0,1-1.134,4.668l-4.7,6.243A35.424,35.424,0,0,0,31.337,41.587l6.407-4.838a4.476,4.476,0,0,1,4.52-.954,32.316,32.316,0,0,0,10.163,1.619A4.579,4.579,0,0,1,57,41.987v10.44A4.579,4.579,0,0,1,52.426,57,52.486,52.486,0,0,1,0,4.573Z" fill="url(#a)"/></svg>