<svg xmlns="http://www.w3.org/2000/svg" xmlns:xlink="http://www.w3.org/1999/xlink" width="20.182" height="22.604" viewBox="0 0 20.182 22.604"><defs><linearGradient id="a" x1="0.077" y1="-0.029" x2="1.08" y2="1" gradientUnits="objectBoundingBox"><stop offset="0" stop-color="#8edd65"/><stop offset="1" stop-color="#43b10c"/></linearGradient></defs><path d="M32.2,3.164a.739.739,0,0,0-.534-.61L22.585.028a.738.738,0,0,0-.4,0L13.1,2.554a.739.739,0,0,0-.534.61c-.053.379-1.255,9.331,1.829,13.785a14.5,14.5,0,0,0,7.815,5.635.741.741,0,0,0,.347,0,14.5,14.5,0,0,0,7.815-5.635C33.459,12.5,32.257,3.543,32.2,3.164ZM28.246,8.391l-6.2,6.2a.739.739,0,0,1-1.045,0l-3.831-3.831a.739.739,0,0,1,0-1.045l.761-.761a.739.739,0,0,1,1.045,0L21.527,11.5l4.914-4.914a.739.739,0,0,1,1.045,0l.761.761A.739.739,0,0,1,28.246,8.391Z" transform="translate(-12.296 0)" fill="url(#a)"/></svg>