<svg xmlns="http://www.w3.org/2000/svg" xmlns:xlink="http://www.w3.org/1999/xlink" width="100.673" height="100.776" viewBox="0 0 100.673 100.776"><defs><linearGradient id="a" x1="4.32" y1="1.793" x2="-0.175" y2="0.252" gradientUnits="objectBoundingBox"><stop offset="0" stop-color="#ffff54"/><stop offset="0.011" stop-color="#f7ed50"/><stop offset="0.037" stop-color="#e5c747"/><stop offset="0.066" stop-color="#d7a640"/><stop offset="0.096" stop-color="#ca8b3b"/><stop offset="0.13" stop-color="#c17636"/><stop offset="0.167" stop-color="#bb6833"/><stop offset="0.212" stop-color="#b75f31"/><stop offset="0.283" stop-color="#b65d31"/><stop offset="0.283" stop-color="#b65e31"/><stop offset="0.294" stop-color="#c87e38"/><stop offset="0.305" stop-color="#d7983f"/><stop offset="0.319" stop-color="#e3ae44"/><stop offset="0.335" stop-color="#ecbf48"/><stop offset="0.354" stop-color="#f3cb4a"/><stop offset="0.382" stop-color="#f6d24c"/><stop offset="0.458" stop-color="#f8d44d"/><stop offset="0.477" stop-color="#edc148"/><stop offset="0.519" stop-color="#d99d40"/><stop offset="0.561" stop-color="#ca8139"/><stop offset="0.603" stop-color="#be6d34"/><stop offset="0.645" stop-color="#b86131"/><stop offset="0.687" stop-color="#b65d31"/><stop offset="0.696" stop-color="#b86131"/><stop offset="0.721" stop-color="#bc6733"/><stop offset="0.766" stop-color="#c87a38"/><stop offset="0.824" stop-color="#d48b3c"/><stop offset="0.886" stop-color="#da953f"/><stop offset="0.962" stop-color="#dd9940"/><stop offset="0.976" stop-color="#e5ac44"/><stop offset="1" stop-color="#f8d44d"/></linearGradient><linearGradient id="b" x1="0.839" y1="1.188" x2="-1.84" y2="-4.53" gradientUnits="objectBoundingBox"><stop offset="0.012" stop-color="#ffff54"/><stop offset="0.021" stop-color="#f5e14e"/><stop offset="0.032" stop-color="#ecc749"/><stop offset="0.044" stop-color="#e5b245"/><stop offset="0.058" stop-color="#e0a442"/><stop offset="0.074" stop-color="#dd9b40"/><stop offset="0.1" stop-color="#dd9940"/><stop offset="0.143" stop-color="#d0853b"/><stop offset="0.215" stop-color="#b65d31"/><stop offset="0.281" stop-color="#b65d31"/><stop offset="0.687" stop-color="#b65d31"/><stop offset="0.696" stop-color="#b86131"/><stop offset="0.721" stop-color="#bc6733"/><stop offset="0.748" stop-color="#c87e38"/><stop offset="0.791" stop-color="#d99d3f"/><stop offset="0.837" stop-color="#e7b545"/><stop offset="0.885" stop-color="#f0c649"/><stop offset="0.937" stop-color="#f6d04c"/><stop offset="1" stop-color="#f8d44d"/></linearGradient><linearGradient id="c" x1="2.302" y1="2.492" x2="-0.175" y2="-0.125" gradientUnits="objectBoundingBox"><stop offset="0" stop-color="#ffff54"/><stop offset="0.011" stop-color="#f7ed50"/><stop offset="0.037" stop-color="#e5c747"/><stop offset="0.066" stop-color="#d7a640"/><stop offset="0.096" stop-color="#ca8b3b"/><stop offset="0.13" stop-color="#c17636"/><stop offset="0.167" stop-color="#bb6833"/><stop offset="0.212" stop-color="#b75f31"/><stop offset="0.283" stop-color="#b65d31"/><stop offset="0.283" stop-color="#b65e31"/><stop offset="0.294" stop-color="#c87e38"/><stop offset="0.305" stop-color="#d7983f"/><stop offset="0.319" stop-color="#e3ae44"/><stop offset="0.335" stop-color="#ecbf48"/><stop offset="0.354" stop-color="#f3cb4a"/><stop offset="0.382" stop-color="#f6d24c"/><stop offset="0.458" stop-color="#f8d44d"/><stop offset="0.475" stop-color="#edc148"/><stop offset="0.511" stop-color="#d99d40"/><stop offset="0.548" stop-color="#ca8139"/><stop offset="0.585" stop-color="#be6d34"/><stop offset="0.621" stop-color="#b86131"/><stop offset="0.658" stop-color="#b65d31"/><stop offset="0.705" stop-color="#b86131"/><stop offset="0.824" stop-color="#bc6733"/><stop offset="0.962" stop-color="#dd9940"/><stop offset="0.976" stop-color="#e5ac44"/><stop offset="1" stop-color="#f8d44d"/></linearGradient><linearGradient id="d" x1="1.046" y1="1.009" x2="-2.635" y2="-1.946" xlink:href="#a"/><linearGradient id="e" x1="0.75" y1="0.192" x2="0.259" y2="0.939" gradientUnits="objectBoundingBox"><stop offset="0" stop-color="#ffff7c"/><stop offset="1" stop-color="#f1b747"/></linearGradient><linearGradient id="f" x1="0.795" y1="0.24" x2="0.201" y2="0.82" gradientUnits="objectBoundingBox"><stop offset="0.076" stop-color="#fff"/><stop offset="1" stop-color="#fff" stop-opacity="0"/></linearGradient></defs><path d="M662.045,66.39l0-.07c0-.036,0-.073.009-.107.011-.11.028-.216.048-.319s.041-.192.065-.283c.007-.026.017-.051.024-.075l.013-.04c.016-.047.028-.1.044-.141.03-.081.063-.159.1-.236s.071-.148.109-.218c.014-.026.03-.048.044-.073l.02-.031c.02-.034.04-.07.063-.1.044-.067.091-.132.141-.194s.105-.125.161-.185c.024-.026.049-.05.074-.074l7.131-6.967a2.891,2.891,0,0,0-.439.554l-.02.033a3.2,3.2,0,0,0-.293.666l-.013.041a3.8,3.8,0,0,0-.147.783l-.006.073a5.27,5.27,0,0,0,.014.918l2.432,23.439-7.131,6.966L662.059,67.31q-.015-.137-.021-.269c-.01-.157-.011-.309-.007-.456C662.033,66.518,662.039,66.455,662.045,66.39Z" transform="translate(-647.052 -56.376)" fill="url(#a)"/><path d="M616.387,112.116l24.065,5.368a4.946,4.946,0,0,0,2.177.044,3.053,3.053,0,0,0,1.465-.78l-7.132,6.967a3.047,3.047,0,0,1-1.465.78,4.96,4.96,0,0,1-2.176-.044l-24.067-5.368Z" transform="translate(-544.382 -33.129)" fill="url(#b)"/><path d="M653.955,92.974c-.009-.151-.011-.3-.007-.444,0-.078.01-.155.016-.232l0-.047c0-.031,0-.061.007-.091.011-.11.028-.216.048-.322s.04-.187.064-.278.053-.175.084-.261c.021-.058.046-.115.07-.171l.007-.018.017-.044c.034-.075.071-.15.111-.221s.081-.14.127-.206a2.374,2.374,0,0,1,.142-.2,2.283,2.283,0,0,1,.164-.188c.024-.026.048-.05.073-.074l7.132-6.967a2.9,2.9,0,0,0-.635.928l-.007.019a3.672,3.672,0,0,0-.272,1.122l0,.046a5.336,5.336,0,0,0,.058,1.266v.017a7.4,7.4,0,0,0,.369,1.351c.051.141.132.282.194.421a9.272,9.272,0,0,0,.471.987l.065.111a10.877,10.877,0,0,0,.9,1.3l.026.031a11.568,11.568,0,0,0,1.183,1.246l.029.026a11.121,11.121,0,0,0,1.434,1.1l24.2,15.586-7.131,6.967-24.2-15.586-.068-.044c-.115-.075-.228-.152-.339-.231s-.218-.157-.323-.239-.2-.158-.3-.239-.2-.165-.293-.249c-.037-.031-.071-.065-.108-.1l-.028-.026c-.049-.046-.1-.09-.148-.135-.094-.088-.186-.178-.276-.269s-.188-.191-.278-.288-.187-.205-.276-.309c-.07-.081-.138-.164-.2-.246l-.024-.028c-.016-.021-.034-.041-.05-.061-.1-.13-.2-.259-.3-.39q-.165-.226-.315-.457c-.085-.13-.159-.261-.238-.392-.021-.037-.046-.074-.067-.111s-.048-.078-.071-.118a9.474,9.474,0,0,1-.4-.87c-.061-.141-.141-.279-.194-.42a7.385,7.385,0,0,1-.366-1.341v-.028A5.618,5.618,0,0,1,653.955,92.974Z" transform="translate(-653.946 -45.38)" fill="url(#c)"/><path d="M644.734,101.162l13.048,24.919a10.614,10.614,0,0,0,.826,1.326h0a11.354,11.354,0,0,0,.968,1.156l.036.037a11.432,11.432,0,0,0,1.068.977l.037.028a10.823,10.823,0,0,0,1.156.806l0,0a9.429,9.429,0,0,0,1.175.6l.06.027a7.73,7.73,0,0,0,.879.289,6.5,6.5,0,0,0,.909.184c.138.019.279.048.414.057a4.411,4.411,0,0,0,1.215-.08A3.063,3.063,0,0,0,668,130.7l-7.132,6.967a3.062,3.062,0,0,1-1.475.789,4.36,4.36,0,0,1-1.215.078c-.135-.007-.275-.037-.415-.056a6.346,6.346,0,0,1-.908-.184c-.073-.021-.14-.02-.212-.043q-.3-.1-.6-.219c-.022-.009-.041-.019-.063-.028s-.038-.017-.057-.026c-.122-.051-.245-.1-.367-.162-.141-.067-.282-.14-.423-.215s-.255-.142-.382-.219l-.006,0h0c-.112-.068-.225-.14-.338-.212s-.219-.147-.329-.225-.209-.151-.315-.231c-.058-.046-.118-.094-.177-.141l-.034-.027-.087-.068c-.1-.08-.195-.162-.29-.246s-.189-.169-.283-.256-.187-.178-.278-.271c-.044-.044-.087-.09-.131-.135l-.036-.037c-.037-.038-.074-.075-.111-.115-.093-.1-.184-.2-.273-.3s-.192-.228-.285-.343-.2-.258-.3-.389v0l0,0c-.11-.15-.215-.3-.318-.46-.135-.208-.265-.42-.386-.639-.041-.074-.083-.15-.122-.225L637.6,108.129Z" transform="translate(-608.656 -37.772)" fill="url(#d)"/><path d="M610.01,94.09l16.009-10.041L623.587,60.61c-.222-2.153.8-3.491,2.4-3.862s3.785.229,5.886,1.949l22.937,18.7,22.7,1.1c4.168.205,8.778,5.209,8.436,9.176l-1.827,21.593,16.467,24.132c2.46,3.6,1.8,7.013-.9,7.636a4.945,4.945,0,0,1-2.177-.044l-24.065-5.368-12.534,13.817a3.034,3.034,0,0,1-1.6.916c-2.7.622-6.792-1.69-8.747-5.411l-13.048-24.92-24.2-15.586C608.889,101.585,607.077,95.934,610.01,94.09Z" transform="translate(-601.449 -56.643)" fill="url(#e)"/><path d="M610.01,94.09l16.009-10.041L623.587,60.61c-.222-2.153.8-3.491,2.4-3.862s3.785.229,5.886,1.949l22.937,18.7,22.7,1.1c4.168.205,8.778,5.209,8.436,9.176l-1.827,21.593,16.467,24.132c2.46,3.6,1.8,7.013-.9,7.636a4.945,4.945,0,0,1-2.177-.044l-24.065-5.368-12.534,13.817a3.034,3.034,0,0,1-1.6.916c-2.7.622-6.792-1.69-8.747-5.411l-13.048-24.92-24.2-15.586C608.889,101.585,607.077,95.934,610.01,94.09Zm3.614,9.9,24.32,15.664L651.058,144.7c1.783,3.39,5.11,5.22,7.336,5.22a3.629,3.629,0,0,0,.8-.087,2.51,2.51,0,0,0,1.316-.75l12.748-14.055,24.377,5.438a5.244,5.244,0,0,0,1.125.131,3.681,3.681,0,0,0,.81-.085,2.413,2.413,0,0,0,1.779-1.519c.545-1.394.091-3.369-1.212-5.278l-16.578-24.289,1.845-21.79a7.724,7.724,0,0,0-2.189-5.361,8.839,8.839,0,0,0-5.73-3.222l-22.883-1.113L631.529,59.119a7.562,7.562,0,0,0-4.579-1.929,3.7,3.7,0,0,0-.84.091c-1.439.332-2.161,1.525-1.979,3.272L626.6,84.33,610.3,94.553a2.708,2.708,0,0,0-1.173,2.388C609.114,98.992,610.655,102.074,613.624,103.989Z" transform="translate(-601.449 -56.643)" opacity="0.7" fill="url(#f)" style="mix-blend-mode:overlay;isolation:isolate"/></svg>